SplineFontDB: 3.2
FontName: KAAlmouziosMartyria-Regular
FullName: KA Almouzios Martyria Regular
FamilyName: KA Almouzios Martyria
Weight: Book
Copyright: SIL OPEN FONT LICENSE Version 1.1
Version: 1.000
ItalicAngle: 0
UnderlinePosition: -100
UnderlineWidth: 50
Ascent: 800
Descent: 200
InvalidEm: 0
sfntRevision: 0x00010000
LayerCount: 2
Layer: 0 1 "Back" 1
Layer: 1 1 "Fore" 0
XUID: [1021 596 -667042339 7465220]
StyleMap: 0x0040
FSType: 8
OS2Version: 3
OS2_WeightWidthSlopeOnly: 0
OS2_UseTypoMetrics: 0
CreationTime: 1487396660
ModificationTime: 1588784680
PfmFamily: 81
TTFWeight: 400
TTFWidth: 5
LineGap: 0
VLineGap: 0
Panose: 0 0 5 0 0 0 0 0 0 0
OS2TypoAscent: 800
OS2TypoAOffset: 0
OS2TypoDescent: -200
OS2TypoDOffset: 0
OS2TypoLinegap: 200
OS2WinAscent: 1000
OS2WinAOffset: 0
OS2WinDescent: 200
OS2WinDOffset: 0
HheadAscent: 1000
HheadAOffset: 0
HheadDescent: -200
HheadDOffset: 0
OS2SubXSize: 650
OS2SubYSize: 600
OS2SubXOff: 0
OS2SubYOff: 75
OS2SupXSize: 650
OS2SupYSize: 600
OS2SupXOff: 0
OS2SupYOff: 350
OS2StrikeYSize: 50
OS2StrikeYPos: 300
OS2CapHeight: 700
OS2XHeight: 500
OS2Vendor: 'UKWN'
OS2CodePages: 00000001.00000000
OS2UnicodeRanges: 00000001.00000000.00000000.00000000
DEI: 91125
ShortTable: maxp 16
  1
  0
  73
  239
  10
  162
  4
  1
  2
  30
  6
  0
  100
  0
  1
  1
EndShort
LangName: 1033 "" "" "" "1.000;UKWN;KAAlmouziosMartyria-Regular" "" "Version 1.000" "" "" "" "Trevor Bullock" "" "" "" "This Font Software is licensed under the SIL Open Font License, Version 1.1. This license is available with a FAQ at: http://scripts.sil.org/OFL" "http://scripts.sil.org/OFL"
Encoding: UnicodeBmp
Compacted: 1
UnicodeInterp: none
NameList: AGL For New Fonts
DisplaySize: -128
AntiAlias: 1
FitToEm: 0
WinInfo: 0 14 6
BeginChars: 65537 73

StartChar: .notdef
Encoding: 65536 -1 0
Width: 500
GlyphClass: 1
Flags: W
LayerCount: 2
Fore
SplineSet
410 -200 m 1,0,-1
 93 -200 l 1,1,-1
 93 800 l 1,2,-1
 410 800 l 1,3,-1
 410 -200 l 1,0,-1
168 733 m 1,4,-1
 168 700 l 1,5,-1
 233 700 l 1,6,-1
 233 663 l 1,7,-1
 167 663 l 1,8,-1
 167 630 l 1,9,-1
 333 630 l 1,10,-1
 333 663 l 1,11,-1
 267 663 l 1,12,-1
 267 700 l 1,13,-1
 333 700 l 1,14,-1
 333 733 l 1,15,-1
 168 733 l 1,4,-1
167 604 m 1,16,-1
 167 500 l 1,17,-1
 333 500 l 1,18,-1
 333 534 l 1,19,-1
 267 534 l 1,20,-1
 267 604 l 1,21,-1
 167 604 l 1,16,-1
233 534 m 1,22,-1
 200 534 l 1,23,-1
 200 570 l 1,24,-1
 233 570 l 1,25,-1
 233 534 l 1,22,-1
167 473 m 1,26,-1
 167 440 l 1,27,-1
 233 440 l 1,28,-1
 233 403 l 1,29,-1
 167 403 l 1,30,-1
 167 370 l 1,31,-1
 267 370 l 1,32,-1
 267 440 l 1,33,-1
 333 440 l 1,34,-1
 333 473 l 1,35,-1
 167 473 l 1,26,-1
300 413 m 1,36,-1
 300 347 l 1,37,-1
 167 347 l 1,38,-1
 167 313 l 1,39,-1
 333 313 l 1,40,-1
 333 413 l 1,41,-1
 300 413 l 1,36,-1
233 291 m 1,42,-1
 233 235 l 1,43,-1
 267 235 l 1,44,-1
 267 258 l 1,45,-1
 300 258 l 1,46,-1
 300 211 l 1,47,-1
 200 211 l 1,48,-1
 200 291 l 1,49,-1
 167 291 l 1,50,-1
 167 178 l 1,51,-1
 333 178 l 1,52,-1
 333 291 l 1,53,-1
 233 291 l 1,42,-1
167 118 m 1,54,-1
 167 5 l 1,55,-1
 333 5 l 1,56,-1
 333 118 l 1,57,-1
 167 118 l 1,54,-1
300 38 m 1,58,-1
 200 38 l 1,59,-1
 200 85 l 1,60,-1
 300 85 l 1,61,-1
 300 38 l 1,58,-1
167 -18 m 1,62,-1
 167 -51 l 1,63,-1
 237 -51 l 1,64,-1
 167 -98 l 1,65,-1
 167 -131 l 1,66,-1
 333 -131 l 1,67,-1
 333 -98 l 1,68,-1
 231 -98 l 1,69,-1
 301 -51 l 1,70,-1
 333 -51 l 1,71,-1
 333 -18 l 1,72,-1
 167 -18 l 1,62,-1
EndSplineSet
EndChar

StartChar: I
Encoding: 73 73 9
Width: 655
GlyphClass: 1
Flags: W
LayerCount: 2
Fore
SplineSet
248 311.5 m 128,-1,1
 268 315 268 315 274 321 c 0,2,3
 285 332 285 332 285 345 c 0,4,5
 285 354 285 354 280 363 c 128,-1,6
 275 372 275 372 266 378 c 0,7,8
 250 388 250 388 206.5 398.5 c 128,-1,9
 163 409 163 409 136 409 c 0,10,11
 114 409 114 409 114 401 c 0,12,13
 114 396 114 396 124 391.5 c 128,-1,14
 134 387 134 387 151 384 c 0,15,16
 189 378 189 378 204.5 370.5 c 128,-1,17
 220 363 220 363 220 351 c 0,18,19
 220 344 220 344 213 338.5 c 128,-1,20
 206 333 206 333 196 331 c 0,21,22
 175 328 175 328 175 319 c 0,23,24
 175 308 175 308 208 308 c 0,25,0
 228 308 228 308 248 311.5 c 128,-1,1
423 311.5 m 128,-1,27
 443 315 443 315 449 321 c 0,28,29
 460 332 460 332 460 345 c 0,30,31
 460 354 460 354 455 363 c 128,-1,32
 450 372 450 372 441 378 c 0,33,34
 426 388 426 388 382 398.5 c 128,-1,35
 338 409 338 409 312 409 c 0,36,37
 289 409 289 409 289 401 c 0,38,39
 289 396 289 396 299.5 391 c 128,-1,40
 310 386 310 386 327 384 c 0,41,42
 365 378 365 378 380 370.5 c 128,-1,43
 395 363 395 363 395 351 c 0,44,45
 395 344 395 344 388 338.5 c 128,-1,46
 381 333 381 333 371 331 c 0,47,48
 350 328 350 328 350 319 c 0,49,50
 350 308 350 308 383 308 c 0,51,26
 403 308 403 308 423 311.5 c 128,-1,27
484 -306 m 0,53,54
 502 -306 502 -306 506 -302 c 0,55,56
 510 -299 510 -299 517 -270 c 0,57,58
 523 -248 523 -248 523 -238 c 0,59,60
 523 -230 523 -230 522 -224 c 0,61,62
 518 -191 518 -191 505.5 -171 c 128,-1,63
 493 -151 493 -151 467 -137 c 0,64,65
 446 -126 446 -126 427.5 -113 c 128,-1,66
 409 -100 409 -100 400 -90 c 0,67,68
 392 -81 392 -81 385.5 -67 c 128,-1,69
 379 -53 379 -53 371 -24 c 0,70,71
 365 2 365 2 365 14 c 0,72,73
 365 64 365 64 409 204 c 2,74,-1
 420 238 l 1,75,-1
 414 244 l 2,76,77
 411 248 411 248 398 254.5 c 128,-1,78
 385 261 385 261 373 266 c 0,79,80
 371 267 371 267 368 267 c 256,81,82
 365 267 365 267 361 262 c 0,83,84
 358 259 358 259 352 240 c 2,85,-1
 348 224 l 1,86,-1
 341 233 l 2,87,88
 321 256 321 256 305 256 c 0,89,90
 297 256 297 256 283 251 c 128,-1,91
 269 246 269 246 256 239 c 0,92,93
 235 230 235 230 209.5 205.5 c 128,-1,94
 184 181 184 181 170 157 c 0,95,96
 151 125 151 125 151 96 c 0,97,98
 151 75 151 75 162.5 60.5 c 128,-1,99
 174 46 174 46 195 39 c 0,100,101
 205 37 205 37 209 37 c 0,102,103
 240 37 240 37 259.5 46.5 c 128,-1,104
 279 56 279 56 308 84 c 0,105,106
 324 100 324 100 328 102.5 c 128,-1,107
 332 105 332 105 330 99 c 0,108,109
 324 60 324 60 324 22 c 0,110,111
 324 -5 324 -5 326 -14 c 0,112,113
 333 -47 333 -47 353 -78.5 c 128,-1,114
 373 -110 373 -110 413 -151 c 0,115,116
 460 -200 460 -200 460 -221 c 0,117,118
 460 -225 460 -225 456.5 -235.5 c 128,-1,119
 453 -246 453 -246 450 -256 c 0,120,121
 446 -268 446 -268 443 -278 c 128,-1,122
 440 -288 440 -288 439 -292 c 0,123,124
 439 -298 439 -298 445 -300.5 c 128,-1,125
 451 -303 451 -303 466 -305 c 0,126,52
 473 -306 473 -306 484 -306 c 0,53,54
243 76 m 0,128,129
 237 76 237 76 234 81 c 0,130,131
 229 89 229 89 229 99 c 0,132,133
 229 124 229 124 253 164 c 0,134,135
 267 187 267 187 285.5 204.5 c 128,-1,136
 304 222 304 222 312 219 c 0,137,138
 314 217 314 217 314.5 215 c 128,-1,139
 315 213 315 213 314 208 c 0,140,141
 314 196 314 196 306 172 c 0,142,143
 298 138 298 138 284 112 c 128,-1,144
 270 86 270 86 256 80 c 0,145,127
 246 76 246 76 243 76 c 0,128,129
EndSplineSet
EndChar

StartChar: O
Encoding: 79 79 13
Width: 863
GlyphClass: 1
Flags: W
LayerCount: 2
Fore
SplineSet
410 148 m 128,-1,1
 430 152 430 152 437 157 c 0,2,3
 448 168 448 168 448 181 c 0,4,5
 448 190 448 190 443 199 c 128,-1,6
 438 208 438 208 429 214 c 0,7,8
 413 224 413 224 368.5 235 c 128,-1,9
 324 246 324 246 298 246 c 0,10,11
 275 246 275 246 275 238 c 0,12,13
 275 233 275 233 285.5 227.5 c 128,-1,14
 296 222 296 222 313 220 c 0,15,16
 351 214 351 214 366.5 206.5 c 128,-1,17
 382 199 382 199 382 187 c 0,18,19
 382 180 382 180 375 174.5 c 128,-1,20
 368 169 368 169 358 167 c 0,21,22
 337 164 337 164 337 155 c 0,23,24
 337 150 337 150 346 147 c 128,-1,25
 355 144 355 144 371 144 c 0,26,0
 390 144 390 144 410 148 c 128,-1,1
587 148 m 128,-1,28
 607 152 607 152 614 157 c 0,29,30
 625 168 625 168 625 181 c 0,31,32
 625 190 625 190 620 199 c 128,-1,33
 615 208 615 208 606 214 c 0,34,35
 590 224 590 224 545.5 235 c 128,-1,36
 501 246 501 246 475 246 c 0,37,38
 452 246 452 246 452 238 c 0,39,40
 452 233 452 233 462.5 227.5 c 128,-1,41
 473 222 473 222 490 220 c 0,42,43
 528 214 528 214 543.5 206.5 c 128,-1,44
 559 199 559 199 559 187 c 0,45,46
 559 180 559 180 552 174.5 c 128,-1,47
 545 169 545 169 535 167 c 0,48,49
 514 164 514 164 514 155 c 0,50,51
 514 150 514 150 523 147 c 128,-1,52
 532 144 532 144 548 144 c 0,53,27
 567 144 567 144 587 148 c 128,-1,28
628 -56 m 0,55,56
 645 -56 645 -56 664 -45 c 128,-1,57
 683 -34 683 -34 695 -16 c 0,58,59
 703 -3 703 -3 703 16 c 0,60,61
 703 26 703 26 700 33 c 0,62,63
 696 42 696 42 681 54 c 128,-1,64
 666 66 666 66 651 70 c 0,65,66
 638 75 638 75 627 75 c 0,67,68
 592 75 592 75 559 69 c 128,-1,69
 526 63 526 63 475 48 c 2,70,-1
 455 43 l 2,71,72
 389 25 389 25 371 19 c 0,73,74
 333 11 333 11 319.5 9 c 128,-1,75
 306 7 306 7 286 7 c 0,76,77
 269 7 269 7 262 8.5 c 128,-1,78
 255 10 255 10 255 15 c 0,79,80
 255 22 255 22 273 44 c 0,81,82
 283 59 283 59 288.5 68.5 c 128,-1,83
 294 78 294 78 294 83 c 0,84,85
 294 89 294 89 291 93 c 0,86,87
 286 101 286 101 275 105 c 0,88,89
 268 109 268 109 262 109 c 0,90,91
 255 109 255 109 250 108 c 0,92,93
 211 102 211 102 190 81 c 0,94,95
 179 71 179 71 173 61.5 c 128,-1,96
 167 52 167 52 161 36 c 0,97,98
 159 26 159 26 159 23 c 2,99,-1
 161 7 l 2,100,101
 163 -6 163 -6 168.5 -14 c 128,-1,102
 174 -22 174 -22 188 -33 c 0,103,104
 205 -46 205 -46 223.5 -49.5 c 128,-1,105
 242 -53 242 -53 280 -52 c 0,106,107
 315 -50 315 -50 332.5 -46.5 c 128,-1,108
 350 -43 350 -43 431 -19 c 0,109,110
 518 6 518 6 566.5 17 c 128,-1,111
 615 28 615 28 615 22 c 0,112,113
 615 17 615 17 592 -10 c 0,114,115
 579 -25 579 -25 579 -30 c 0,116,117
 579 -37 579 -37 592 -43 c 0,118,119
 604 -51 604 -51 615 -54 c 0,120,54
 623 -56 623 -56 628 -56 c 0,55,56
EndSplineSet
EndChar

StartChar: P
Encoding: 80 80 14
Width: 1184
GlyphClass: 1
Flags: W
LayerCount: 2
Fore
SplineSet
1033.5 340.5 m 128,-1,1
 1038 344 1038 344 1038 351 c 0,2,3
 1038 363 1038 363 1026 372 c 0,4,5
 951 422 951 422 855 434 c 0,6,7
 833 436 833 436 768 436 c 0,8,9
 712 436 712 436 578 434 c 0,10,11
 473 431 473 431 390 431 c 0,12,13
 318 431 318 431 292 434 c 0,14,15
 240 440 240 440 209.5 444.5 c 128,-1,16
 179 449 179 449 165 456 c 0,17,18
 161 458 161 458 159 458 c 0,19,20
 153 458 153 458 149 452.5 c 128,-1,21
 145 447 145 447 146 440 c 0,22,23
 151 417 151 417 188.5 400 c 128,-1,24
 226 383 226 383 290 374 c 0,25,26
 381 363 381 363 468 364 c 0,27,28
 555 367 555 367 749 367 c 2,29,-1
 859 366 l 2,30,31
 927 362 927 362 977 353 c 0,32,33
 990 350 990 350 1003 346.5 c 128,-1,34
 1016 343 1016 343 1023 341 c 0,35,0
 1029 337 1029 337 1033.5 340.5 c 128,-1,1
530 8 m 0,37,38
 537 8 537 8 543 18 c 128,-1,39
 549 28 549 28 560 51 c 0,40,41
 604 140 604 140 631 177 c 0,42,43
 643 192 643 192 647 192 c 0,44,45
 652 192 652 192 652 178 c 0,46,47
 652 169 652 169 646.5 164.5 c 128,-1,48
 641 160 641 160 641 148 c 0,49,50
 641 123 641 123 665 123 c 0,51,52
 685 123 685 123 696 139 c 0,53,54
 704 149 704 149 708 169.5 c 128,-1,55
 712 190 712 190 712 212 c 0,56,57
 712 252 712 252 701 263 c 256,58,59
 690 274 690 274 667 274 c 0,60,61
 659 274 659 274 647 270 c 0,62,63
 635 265 635 265 628 258 c 128,-1,64
 621 251 621 251 608 229 c 2,65,-1
 549 137 l 2,66,67
 547 135 547 135 547 150 c 2,68,-1
 548 203 l 2,69,70
 548 237 548 237 538 252.5 c 128,-1,71
 528 268 528 268 507 268 c 0,72,73
 501 268 501 268 496.5 266.5 c 128,-1,74
 492 265 492 265 488 262 c 0,75,76
 478 255 478 255 459.5 233.5 c 128,-1,77
 441 212 441 212 405 166 c 0,78,79
 397 156 397 156 389.5 144.5 c 128,-1,80
 382 133 382 133 378 133 c 0,81,82
 371 133 371 133 357 154 c 0,83,84
 356 155 356 155 358 178 c 0,85,86
 358 186 358 186 359 196 c 128,-1,87
 360 206 360 206 360 218 c 0,88,89
 361 252 361 252 363.5 275.5 c 128,-1,90
 366 299 366 299 366 307 c 0,91,92
 366 313 366 313 363.5 315 c 128,-1,93
 361 317 361 317 355 317 c 0,94,95
 329 317 329 317 321.5 315 c 128,-1,96
 314 313 314 313 309 305 c 0,97,98
 307 301 307 301 306.5 285.5 c 128,-1,99
 306 270 306 270 306 234 c 0,100,101
 306 182 306 182 304.5 166.5 c 128,-1,102
 303 151 303 151 297 139 c 0,103,104
 290 126 290 126 275 115.5 c 128,-1,105
 260 105 260 105 248 105 c 0,106,107
 223 105 223 105 213.5 117.5 c 128,-1,108
 204 130 204 130 204 154 c 0,109,110
 204 170 204 170 208 204 c 0,111,112
 212 241 212 241 220 256 c 128,-1,113
 228 271 228 271 242 271 c 0,114,115
 251 271 251 271 259.5 264 c 128,-1,116
 268 257 268 257 271 247 c 0,117,118
 280 215 280 215 286 215 c 0,119,120
 294 215 294 215 294 251 c 0,121,122
 294 286 294 286 285.5 301 c 128,-1,123
 277 316 277 316 255 316 c 0,124,125
 207 315 207 315 181.5 281.5 c 128,-1,126
 156 248 156 248 156 183 c 0,127,128
 156 131 156 131 177 99 c 128,-1,129
 198 67 198 67 243 67 c 0,130,131
 266 67 266 67 281.5 73.5 c 128,-1,132
 297 80 297 80 309 94 c 0,133,134
 320 105 320 105 320 105 c 1,135,136
 333 89 333 89 341 81 c 128,-1,137
 349 73 349 73 355 73 c 0,138,139
 368 73 368 73 387.5 87.5 c 128,-1,140
 407 102 407 102 426 127 c 0,141,142
 439 144 439 144 465 184 c 2,143,-1
 482 209 l 2,144,145
 493 223 493 223 493 223 c 2,146,147
 494 223 494 223 494.5 215.5 c 128,-1,148
 495 208 495 208 496 199 c 0,149,150
 500 114 500 114 505.5 73 c 128,-1,151
 511 32 511 32 521 15 c 0,152,36
 525 8 525 8 530 8 c 0,37,38
998 194 m 0,154,155
 1012 194 1012 194 1015 196 c 0,156,157
 1021 199 1021 199 1021 204 c 256,158,159
 1021 209 1021 209 1014 212 c 0,160,161
 1007 214 1007 214 1002 223.5 c 128,-1,162
 997 233 997 233 989 263 c 0,163,164
 982 289 982 289 975 300 c 128,-1,165
 968 311 968 311 955.5 314.5 c 128,-1,166
 943 318 943 318 917 318 c 0,167,168
 890 318 890 318 887 310 c 2,169,-1
 887 309 l 2,170,171
 887 305 887 305 896 301 c 0,172,173
 903 299 903 299 907 290.5 c 128,-1,174
 911 282 911 282 922 248 c 0,175,176
 930 224 930 224 938 213 c 128,-1,177
 946 202 946 202 959 198 c 0,178,153
 977 194 977 194 998 194 c 0,154,155
883 194 m 0,180,181
 897 194 897 194 900 196 c 0,182,183
 906 199 906 199 906 204 c 256,184,185
 906 209 906 209 899 212 c 0,186,187
 893 214 893 214 888.5 223.5 c 128,-1,188
 884 233 884 233 875 263 c 0,189,190
 868 288 868 288 860.5 299.5 c 128,-1,191
 853 311 853 311 841 314.5 c 128,-1,192
 829 318 829 318 805 318 c 0,193,194
 779 318 779 318 773 310 c 2,195,-1
 772 308 l 2,196,197
 772 305 772 305 781 301 c 0,198,199
 789 299 789 299 793.5 289.5 c 128,-1,200
 798 280 798 280 808 248 c 0,201,202
 815 225 815 225 823.5 213.5 c 128,-1,203
 832 202 832 202 845 198 c 0,204,179
 863 194 863 194 883 194 c 0,180,181
EndSplineSet
EndChar

StartChar: a
Encoding: 97 97 25
Width: 675
GlyphClass: 1
Flags: W
LayerCount: 2
Fore
SplineSet
472 -290 m 0,1,2
 486 -290 486 -290 502 -281 c 128,-1,3
 518 -272 518 -272 528 -257 c 0,4,5
 535 -247 535 -247 535 -231 c 0,6,7
 535 -223 535 -223 532 -217 c 0,8,9
 529 -209 529 -209 516.5 -199.5 c 128,-1,10
 504 -190 504 -190 492 -186 c 0,11,12
 483 -182 483 -182 473 -182 c 0,13,14
 443 -182 443 -182 416 -187 c 128,-1,15
 389 -192 389 -192 346 -204 c 2,16,-1
 318 -212 l 2,17,18
 275 -223 275 -223 260 -228 c 0,19,20
 229 -235 229 -235 218 -236.5 c 128,-1,21
 207 -238 207 -238 190 -238 c 0,22,23
 176 -238 176 -238 170.5 -237 c 128,-1,24
 165 -236 165 -236 165 -232 c 0,25,26
 165 -227 165 -227 179 -208 c 0,27,28
 196 -183 196 -183 196 -175 c 0,29,30
 196 -173 196 -173 194 -167 c 0,31,32
 191 -161 191 -161 181 -157 c 0,33,34
 175 -154 175 -154 171 -154 c 0,35,36
 165 -154 165 -154 160 -155 c 0,37,38
 128 -160 128 -160 111 -177 c 0,39,40
 102 -186 102 -186 97 -193.5 c 128,-1,41
 92 -201 92 -201 87 -214 c 0,42,43
 85 -224 85 -224 85 -225 c 2,44,-1
 87 -238 l 2,45,46
 88 -248 88 -248 93 -255 c 128,-1,47
 98 -262 98 -262 109 -271 c 0,48,49
 123 -282 123 -282 138.5 -285 c 128,-1,50
 154 -288 154 -288 185 -287 c 0,51,52
 215 -285 215 -285 229.5 -282 c 128,-1,53
 244 -279 244 -279 310 -260 c 0,54,55
 462 -216 462 -216 462 -226 c 0,56,57
 461 -229 461 -229 456 -236 c 128,-1,58
 451 -243 451 -243 443 -252 c 0,59,60
 433 -263 433 -263 433 -269 c 0,61,62
 433 -274 433 -274 443 -280 c 256,63,64
 453 -286 453 -286 462 -289 c 0,65,0
 465 -290 465 -290 472 -290 c 0,1,2
EndSplineSet
EndChar

StartChar: b
Encoding: 98 98 26
Width: 802
GlyphClass: 1
Flags: W
LayerCount: 2
Fore
SplineSet
330 235 m 0,1,2
 338 235 338 235 345 240 c 0,3,4
 360 251 360 251 365.5 264.5 c 128,-1,5
 371 278 371 278 372 311 c 0,6,7
 375 360 375 360 386 387 c 0,8,9
 392 399 392 399 392 408 c 0,10,11
 392 415 392 415 389 418 c 2,12,-1
 386 423 l 1,13,-1
 330 421 l 2,14,15
 264 419 264 419 214 419 c 2,16,-1
 153 420 l 1,17,-1
 143 421 l 2,18,19
 137 421 137 421 133 417 c 0,20,21
 123 411 123 411 120 391 c 2,22,-1
 120 385 l 2,23,24
 120 379 120 379 124 375 c 0,25,26
 132 367 132 367 151 367 c 0,27,28
 166 367 166 367 194 370 c 0,29,30
 212 372 212 372 255 372 c 0,31,32
 279 372 279 372 289 371.5 c 128,-1,33
 299 371 299 371 299 369 c 2,34,-1
 294 309 l 1,35,-1
 290 253 l 1,36,-1
 295 248 l 2,37,38
 301 242 301 242 312 239 c 0,39,0
 323 235 323 235 330 235 c 0,1,2
507 248 m 2,41,-1
 512 253 l 1,42,-1
 508 309 l 1,43,-1
 503 369 l 2,44,45
 503 371 503 371 513 371.5 c 128,-1,46
 523 372 523 372 547 372 c 0,47,48
 590 372 590 372 608 370 c 0,49,50
 637 367 637 367 651 367 c 0,51,52
 670 367 670 367 678 375 c 0,53,54
 682 379 682 379 682 385 c 0,55,56
 682 408 682 408 669 417 c 0,57,58
 666 420 666 420 661.5 420.5 c 128,-1,59
 657 421 657 421 649 420 c 2,60,-1
 588 419 l 2,61,62
 538 419 538 419 472 421 c 2,63,-1
 416 423 l 1,64,-1
 413 418 l 2,65,66
 410 414 410 414 410 408 c 0,67,68
 410 399 410 399 416 387 c 0,69,70
 427 360 427 360 430 311 c 0,71,72
 431 278 431 278 436.5 264.5 c 128,-1,73
 442 251 442 251 457 240 c 0,74,75
 464 235 464 235 472 235 c 0,76,77
 479 235 479 235 490 239 c 0,78,40
 501 242 501 242 507 248 c 2,41,-1
305.5 -249 m 128,-1,80
 308 -248 308 -248 310 -247 c 0,81,82
 319 -244 319 -244 328 -244 c 2,83,-1
 340 -243 l 1,84,-1
 379 -128 l 2,85,86
 399 -68 399 -68 419 -14 c 0,87,88
 420 -14 420 -14 442 -55 c 0,89,90
 464 -98 464 -98 487 -159 c 0,91,92
 509 -217 509 -217 513 -226 c 0,93,94
 515 -229 515 -229 520 -229 c 0,95,96
 528 -229 528 -229 537 -223 c 0,97,98
 546 -218 546 -218 549 -212.5 c 128,-1,99
 552 -207 552 -207 552 -197 c 0,100,101
 552 -182 552 -182 548 -165.5 c 128,-1,102
 544 -149 544 -149 534 -118 c 0,103,104
 526 -92 526 -92 509.5 -53 c 128,-1,105
 493 -14 493 -14 486 0 c 0,106,107
 478 12 478 12 468 35 c 0,108,109
 461 51 461 51 459.5 56.5 c 128,-1,110
 458 62 458 62 458 75 c 0,111,112
 458 85 458 85 461 94 c 128,-1,113
 464 103 464 103 473 124 c 0,114,115
 480 141 480 141 487 152 c 128,-1,116
 494 163 494 163 506 179 c 2,117,-1
 528 208 l 1,118,-1
 525 215 l 1,119,-1
 523 222 l 1,120,-1
 509 223 l 2,121,122
 494 223 494 223 492 222 c 0,123,124
 481 216 481 216 457 168 c 2,125,-1
 437 126 l 2,126,127
 435 120 435 120 433 117.5 c 128,-1,128
 431 115 431 115 428 115 c 0,129,130
 423 115 423 115 417 120.5 c 128,-1,131
 411 126 411 126 386 155 c 2,132,-1
 353 196 l 1,133,-1
 346 195 l 2,134,135
 337 194 337 194 327 190 c 128,-1,136
 317 186 317 186 311 179 c 0,137,138
 304 172 304 172 301 165.5 c 128,-1,139
 298 159 298 159 298 148 c 0,140,141
 298 138 298 138 300 134.5 c 128,-1,142
 302 131 302 131 308 130 c 0,143,144
 323 127 323 127 342 108 c 0,145,146
 350 99 350 99 366 75.5 c 128,-1,147
 382 52 382 52 390 37 c 2,148,-1
 397 24 l 1,149,-1
 349 -107 l 2,150,151
 300 -236 300 -236 300 -242 c 2,152,-1
 301 -248 l 2,153,79
 303 -250 303 -250 305.5 -249 c 128,-1,80
EndSplineSet
EndChar

StartChar: c
Encoding: 99 99 27
Width: 593
GlyphClass: 1
Flags: W
LayerCount: 2
Fore
SplineSet
393 407 m 0,1,2
 393 398 393 398 387 387 c 0,3,4
 376 360 376 360 373 311 c 0,5,6
 372 278 372 278 366.5 264.5 c 128,-1,7
 361 251 361 251 346 240 c 0,8,9
 339 235 339 235 331 235 c 0,10,11
 324 235 324 235 313 239 c 0,12,13
 302 242 302 242 296 248 c 2,14,-1
 291 253 l 1,15,-1
 295 309 l 1,16,-1
 300 369 l 2,17,18
 300 371 300 371 290 371.5 c 128,-1,19
 280 372 280 372 256 372 c 0,20,21
 213 372 213 372 195 370 c 0,22,23
 167 367 167 367 152 367 c 0,24,25
 133 367 133 367 125 375 c 0,26,27
 121 379 121 379 121 385 c 0,28,29
 120 387 120 387 120 391 c 0,30,31
 120 401 120 401 126 411 c 0,32,33
 137 438 137 438 140 487 c 0,34,35
 141 520 141 520 146.5 533.5 c 128,-1,36
 152 547 152 547 167 558 c 0,37,38
 174 563 174 563 182 563 c 0,39,40
 189 563 189 563 200 559 c 0,41,42
 211 556 211 556 217 550 c 2,43,-1
 222 545 l 1,44,-1
 218 489 l 1,45,-1
 213 429 l 2,46,47
 213 427 213 427 223 426.5 c 128,-1,48
 233 426 233 426 257 426 c 0,49,50
 300 426 300 426 318 428 c 0,51,52
 346 431 346 431 361 431 c 0,53,54
 380 431 380 431 388 423 c 0,55,56
 392 419 392 419 392 413 c 0,57,0
 393 411 393 411 393 407 c 0,1,2
226.5 -249 m 128,-1,59
 229 -248 229 -248 231 -247 c 0,60,61
 240 -244 240 -244 249 -244 c 2,62,-1
 261 -243 l 1,63,-1
 300 -128 l 2,64,65
 320 -68 320 -68 340 -14 c 0,66,67
 341 -14 341 -14 363 -55 c 0,68,69
 385 -98 385 -98 408 -159 c 0,70,71
 430 -217 430 -217 434 -226 c 0,72,73
 436 -229 436 -229 441 -229 c 0,74,75
 449 -229 449 -229 458 -223 c 0,76,77
 467 -218 467 -218 470 -212.5 c 128,-1,78
 473 -207 473 -207 473 -197 c 0,79,80
 473 -182 473 -182 469 -165.5 c 128,-1,81
 465 -149 465 -149 455 -118 c 0,82,83
 447 -92 447 -92 430.5 -53 c 128,-1,84
 414 -14 414 -14 407 0 c 0,85,86
 399 12 399 12 389 35 c 0,87,88
 382 51 382 51 380.5 56.5 c 128,-1,89
 379 62 379 62 379 75 c 0,90,91
 379 85 379 85 382 94 c 128,-1,92
 385 103 385 103 394 124 c 0,93,94
 401 141 401 141 408 152 c 128,-1,95
 415 163 415 163 427 179 c 2,96,-1
 449 208 l 1,97,-1
 446 215 l 1,98,-1
 444 222 l 1,99,-1
 430 223 l 2,100,101
 415 223 415 223 413 222 c 0,102,103
 402 216 402 216 378 168 c 2,104,-1
 358 126 l 2,105,106
 356 120 356 120 354 117.5 c 128,-1,107
 352 115 352 115 349 115 c 0,108,109
 344 115 344 115 338 120.5 c 128,-1,110
 332 126 332 126 307 155 c 2,111,-1
 274 196 l 1,112,-1
 267 195 l 2,113,114
 258 194 258 194 248 190 c 128,-1,115
 238 186 238 186 232 179 c 0,116,117
 225 172 225 172 222 165.5 c 128,-1,118
 219 159 219 159 219 148 c 0,119,120
 219 138 219 138 221 134.5 c 128,-1,121
 223 131 223 131 229 130 c 0,122,123
 244 127 244 127 263 108 c 0,124,125
 271 99 271 99 287 75.5 c 128,-1,126
 303 52 303 52 311 37 c 2,127,-1
 318 24 l 1,128,-1
 270 -107 l 2,129,130
 221 -236 221 -236 221 -242 c 2,131,-1
 222 -248 l 2,132,58
 224 -250 224 -250 226.5 -249 c 128,-1,59
EndSplineSet
EndChar

StartChar: d
Encoding: 100 100 28
Width: 675
GlyphClass: 1
Flags: W
LayerCount: 2
Fore
SplineSet
268 -244 m 0,1,2
 284 -244 284 -244 299.5 -241 c 128,-1,3
 315 -238 315 -238 320 -234 c 0,4,5
 328 -226 328 -226 328 -214 c 0,6,7
 328 -207 328 -207 324 -199.5 c 128,-1,8
 320 -192 320 -192 313 -188 c 0,9,10
 300 -180 300 -180 264.5 -171 c 128,-1,11
 229 -162 229 -162 208 -162 c 0,12,13
 200 -162 200 -162 195 -164 c 128,-1,14
 190 -166 190 -166 190 -168 c 0,15,16
 190 -172 190 -172 198 -176.5 c 128,-1,17
 206 -181 206 -181 220 -183 c 0,18,19
 251 -188 251 -188 263.5 -194 c 128,-1,20
 276 -200 276 -200 276 -210 c 0,21,22
 276 -216 276 -216 270.5 -220 c 128,-1,23
 265 -224 265 -224 256 -226 c 0,24,25
 239 -229 239 -229 239 -235 c 0,26,27
 239 -239 239 -239 249 -242 c 0,28,0
 259 -244 259 -244 268 -244 c 0,1,2
410 -244 m 0,30,31
 426 -244 426 -244 441 -241 c 128,-1,32
 456 -238 456 -238 461 -234 c 0,33,34
 470 -225 470 -225 470 -214 c 0,35,36
 470 -197 470 -197 455 -188 c 0,37,38
 441 -180 441 -180 406 -171 c 128,-1,39
 371 -162 371 -162 350 -162 c 0,40,41
 332 -162 332 -162 332 -168 c 0,42,43
 332 -172 332 -172 340 -176.5 c 128,-1,44
 348 -181 348 -181 362 -183 c 0,45,46
 393 -188 393 -188 405 -194 c 128,-1,47
 417 -200 417 -200 417 -210 c 0,48,49
 417 -216 417 -216 411.5 -220 c 128,-1,50
 406 -224 406 -224 398 -226 c 0,51,52
 381 -229 381 -229 381 -235 c 0,53,54
 381 -239 381 -239 391 -242 c 0,55,29
 401 -244 401 -244 410 -244 c 0,30,31
472 -400 m 0,57,58
 486 -400 486 -400 502 -391 c 128,-1,59
 518 -382 518 -382 528 -367 c 0,60,61
 535 -357 535 -357 535 -341 c 0,62,63
 535 -333 535 -333 532 -327 c 0,64,65
 529 -319 529 -319 516.5 -309.5 c 128,-1,66
 504 -300 504 -300 492 -296 c 0,67,68
 483 -292 483 -292 473 -292 c 0,69,70
 443 -292 443 -292 416 -297 c 128,-1,71
 389 -302 389 -302 346 -314 c 2,72,-1
 318 -322 l 2,73,74
 275 -333 275 -333 260 -338 c 0,75,76
 229 -345 229 -345 218 -346.5 c 128,-1,77
 207 -348 207 -348 190 -348 c 0,78,79
 176 -348 176 -348 170.5 -347 c 128,-1,80
 165 -346 165 -346 165 -342 c 0,81,82
 165 -337 165 -337 179 -318 c 0,83,84
 196 -293 196 -293 196 -285 c 0,85,86
 196 -283 196 -283 194 -277 c 0,87,88
 191 -271 191 -271 181 -267 c 0,89,90
 175 -264 175 -264 171 -264 c 0,91,92
 165 -264 165 -264 160 -265 c 0,93,94
 128 -270 128 -270 111 -287 c 0,95,96
 102 -296 102 -296 97 -303.5 c 128,-1,97
 92 -311 92 -311 87 -324 c 0,98,99
 85 -334 85 -334 85 -335 c 2,100,-1
 87 -348 l 2,101,102
 88 -358 88 -358 93 -365 c 128,-1,103
 98 -372 98 -372 109 -381 c 0,104,105
 123 -392 123 -392 138.5 -395 c 128,-1,106
 154 -398 154 -398 185 -397 c 0,107,108
 215 -395 215 -395 229.5 -392 c 128,-1,109
 244 -389 244 -389 310 -370 c 0,110,111
 462 -326 462 -326 462 -336 c 0,112,113
 461 -339 461 -339 456 -346 c 128,-1,114
 451 -353 451 -353 443 -362 c 0,115,116
 433 -373 433 -373 433 -379 c 0,117,118
 433 -384 433 -384 443 -390 c 256,119,120
 453 -396 453 -396 462 -399 c 0,121,56
 465 -400 465 -400 472 -400 c 0,57,58
EndSplineSet
EndChar

StartChar: e
Encoding: 101 101 29
Width: 704
GlyphClass: 1
Flags: W
LayerCount: 2
Fore
SplineSet
302 -453 m 256,1,2
 308 -453 308 -453 324 -450 c 0,3,4
 338 -447 338 -447 347 -441 c 128,-1,5
 356 -435 356 -435 356 -430 c 0,6,7
 356 -423 356 -423 340 -419 c 0,8,9
 312 -412 312 -412 293.5 -395.5 c 128,-1,10
 275 -379 275 -379 275 -364 c 0,11,12
 275 -354 275 -354 284 -336 c 0,13,14
 301 -302 301 -302 306 -287.5 c 128,-1,15
 311 -273 311 -273 311 -254 c 256,16,17
 311 -235 311 -235 309 -226.5 c 128,-1,18
 307 -218 307 -218 301 -208 c 0,19,20
 288 -186 288 -186 258 -172.5 c 128,-1,21
 228 -159 228 -159 191 -159 c 0,22,23
 152 -159 152 -159 126 -186.5 c 128,-1,24
 100 -214 100 -214 100 -255 c 0,25,26
 100 -279 100 -279 110.5 -289.5 c 128,-1,27
 121 -300 121 -300 145 -300 c 0,28,29
 156 -300 156 -300 161.5 -298 c 128,-1,30
 167 -296 167 -296 170 -291 c 0,31,32
 174 -286 174 -286 174 -281 c 0,33,34
 174 -275 174 -275 169 -264 c 0,35,36
 164 -251 164 -251 164 -244 c 0,37,38
 164 -228 164 -228 183 -218 c 0,39,40
 190 -214 190 -214 204 -214 c 256,41,42
 218 -214 218 -214 233 -218 c 128,-1,43
 248 -222 248 -222 255 -228 c 0,44,45
 260 -233 260 -233 260 -238 c 0,46,47
 260 -244 260 -244 255 -256 c 128,-1,48
 250 -268 250 -268 247 -274 c 0,49,50
 229 -314 229 -314 229 -356 c 0,51,52
 229 -389 229 -389 245.5 -416 c 128,-1,53
 262 -443 262 -443 285 -450 c 0,54,0
 296 -453 296 -453 302 -453 c 256,1,2
567 -453 m 0,56,57
 573 -453 573 -453 589 -450 c 0,58,59
 603 -447 603 -447 612 -441.5 c 128,-1,60
 621 -436 621 -436 621 -431 c 0,61,62
 621 -423 621 -423 605 -419 c 0,63,64
 577 -412 577 -412 558.5 -395.5 c 128,-1,65
 540 -379 540 -379 540 -364 c 0,66,67
 540 -354 540 -354 549 -336 c 0,68,69
 566 -302 566 -302 571 -287.5 c 128,-1,70
 576 -273 576 -273 576 -254 c 256,71,72
 576 -235 576 -235 574 -226.5 c 128,-1,73
 572 -218 572 -218 566 -208 c 0,74,75
 553 -186 553 -186 523 -172.5 c 128,-1,76
 493 -159 493 -159 456 -159 c 0,77,78
 417 -159 417 -159 391 -186.5 c 128,-1,79
 365 -214 365 -214 365 -255 c 0,80,81
 365 -279 365 -279 375.5 -289.5 c 128,-1,82
 386 -300 386 -300 410 -300 c 0,83,84
 421 -300 421 -300 426.5 -298 c 128,-1,85
 432 -296 432 -296 435 -291 c 0,86,87
 439 -286 439 -286 439 -281 c 0,88,89
 439 -275 439 -275 434 -264 c 0,90,91
 429 -251 429 -251 429 -244 c 0,92,93
 429 -228 429 -228 448 -218 c 0,94,95
 455 -214 455 -214 469 -214 c 256,96,97
 483 -214 483 -214 498 -218 c 128,-1,98
 513 -222 513 -222 520 -228 c 0,99,100
 525 -233 525 -233 525 -238 c 0,101,102
 525 -244 525 -244 520 -256 c 128,-1,103
 515 -268 515 -268 512 -274 c 0,104,105
 494 -314 494 -314 494 -356 c 0,106,107
 494 -389 494 -389 510.5 -416 c 128,-1,108
 527 -443 527 -443 550 -450 c 0,109,55
 560 -453 560 -453 567 -453 c 0,56,57
EndSplineSet
EndChar

StartChar: f
Encoding: 102 102 30
Width: 607
GlyphClass: 1
Flags: W
LayerCount: 2
Fore
SplineSet
82.5 -440.5 m 128,-1,1
 86 -444 86 -444 88 -444 c 0,2,3
 91 -444 91 -444 152 -380 c 2,4,-1
 178 -353 l 1,5,-1
 183 -356 l 2,6,7
 191 -362 191 -362 209 -365 c 0,8,9
 224 -369 224 -369 232 -369 c 256,10,11
 240 -369 240 -369 245 -368 c 0,12,13
 285 -362 285 -362 313.5 -343.5 c 128,-1,14
 342 -325 342 -325 348 -301 c 0,15,16
 349 -298 349 -298 349 -293 c 0,17,18
 349 -291 349 -291 344 -278 c 0,19,20
 335 -262 335 -262 329 -255 c 0,21,22
 325 -250 325 -250 323 -246.5 c 128,-1,23
 321 -243 321 -243 323 -241 c 0,24,25
 326 -237 326 -237 337 -231.5 c 128,-1,26
 348 -226 348 -226 350 -228 c 0,27,28
 356 -231 356 -231 373 -245 c 0,29,30
 389 -257 389 -257 396.5 -259.5 c 128,-1,31
 404 -262 404 -262 408 -256 c 0,32,33
 412 -252 412 -252 406.5 -244.5 c 128,-1,34
 401 -237 401 -237 378 -218 c 0,35,36
 373 -213 373 -213 373 -210 c 0,37,38
 373 -204 373 -204 385 -195 c 0,39,40
 412 -176 412 -176 412 -167 c 256,41,42
 412 -158 412 -158 393 -149 c 0,43,44
 387 -146 387 -146 382 -146 c 0,45,46
 371 -146 371 -146 352 -165 c 0,47,48
 335 -180 335 -180 334 -180 c 0,49,50
 332 -179 332 -179 328 -177 c 128,-1,51
 324 -175 324 -175 319 -171 c 0,52,53
 314 -169 314 -169 306.5 -164.5 c 128,-1,54
 299 -160 299 -160 295 -159 c 0,55,56
 289 -156 289 -156 286 -156 c 128,-1,57
 283 -156 283 -156 279 -159 c 0,58,59
 267 -169 267 -169 270 -174 c 0,60,61
 272 -176 272 -176 278 -180.5 c 128,-1,62
 284 -185 284 -185 293 -190 c 2,63,-1
 314 -204 l 1,64,-1
 310 -210 l 2,65,66
 308 -214 308 -214 297 -223 c 0,67,68
 291 -227 291 -227 287 -228 c 128,-1,69
 283 -229 283 -229 274 -228 c 0,70,71
 268 -227 268 -227 253 -227 c 0,72,73
 236 -227 236 -227 218.5 -229 c 128,-1,74
 201 -231 201 -231 192 -234 c 0,75,76
 166 -242 166 -242 149 -260 c 128,-1,77
 132 -278 132 -278 132 -297 c 0,78,79
 132 -313 132 -313 139 -329 c 2,80,-1
 145 -340 l 1,81,-1
 118 -361 l 2,82,83
 95 -379 95 -379 80 -394.5 c 128,-1,84
 65 -410 65 -410 65 -415 c 0,85,86
 65 -424 65 -424 78 -436 c 0,87,0
 79 -437 79 -437 82.5 -440.5 c 128,-1,1
234 -337 m 0,89,90
 223 -337 223 -337 214 -330 c 128,-1,91
 205 -323 205 -323 200 -310 c 0,92,93
 197 -301 197 -301 197 -295 c 0,94,95
 197 -279 197 -279 218 -265 c 0,96,97
 224 -260 224 -260 228.5 -258 c 128,-1,98
 233 -256 233 -256 238 -256 c 0,99,100
 258 -256 258 -256 269 -267 c 128,-1,101
 280 -278 280 -278 280 -294 c 0,102,103
 280 -318 280 -318 249 -333 c 0,104,88
 242 -337 242 -337 234 -337 c 0,89,90
EndSplineSet
EndChar

StartChar: g
Encoding: 103 103 31
Width: 623
GlyphClass: 1
Flags: W
LayerCount: 2
Fore
SplineSet
107 -450 m 0,1,2
 119 -450 119 -450 143 -424 c 0,3,4
 145 -422 145 -422 150 -417 c 128,-1,5
 155 -412 155 -412 159 -412 c 0,6,7
 165 -412 165 -412 186 -422 c 0,8,9
 202 -430 202 -430 212 -430 c 0,10,11
 218 -430 218 -430 225.5 -424.5 c 128,-1,12
 233 -419 233 -419 233 -414 c 0,13,14
 233 -407 233 -407 193 -393 c 0,15,16
 189 -392 189 -392 182.5 -389.5 c 128,-1,17
 176 -387 176 -387 176 -385 c 2,18,19
 176 -385 176 -385 187 -372 c 0,20,21
 197 -363 197 -363 200.5 -361.5 c 128,-1,22
 204 -360 204 -360 215 -360 c 0,23,24
 250 -360 250 -360 273 -355.5 c 128,-1,25
 296 -351 296 -351 322 -338 c 0,26,27
 366 -317 366 -317 366 -279 c 0,28,29
 366 -274 366 -274 364 -269.5 c 128,-1,30
 362 -265 362 -265 359.5 -261 c 128,-1,31
 357 -257 357 -257 355 -254 c 0,32,33
 343 -239 343 -239 345 -238 c 2,34,-1
 382 -209 l 2,35,36
 412 -187 412 -187 421.5 -177.5 c 128,-1,37
 431 -168 431 -168 430 -163 c 0,38,39
 428 -158 428 -158 416.5 -147.5 c 128,-1,40
 405 -137 405 -137 401 -137 c 0,41,42
 393 -137 393 -137 331 -195 c 0,43,44
 301 -225 301 -225 298 -223 c 0,45,46
 294 -219 294 -219 265 -219 c 0,47,48
 251 -219 251 -219 246 -220 c 0,49,50
 231 -222 231 -222 210 -229 c 128,-1,51
 189 -236 189 -236 175 -244 c 256,52,53
 161 -252 161 -252 148 -263.5 c 128,-1,54
 135 -275 135 -275 131 -284 c 0,55,56
 127 -292 127 -292 127 -301 c 0,57,58
 127 -309 127 -309 132.5 -317.5 c 128,-1,59
 138 -326 138 -326 150 -338 c 2,60,-1
 163 -353 l 1,61,-1
 152 -362 l 1,62,-1
 137 -369 l 2,63,64
 134 -369 134 -369 108 -357 c 0,65,66
 97 -351 97 -351 88.5 -347.5 c 128,-1,67
 80 -344 80 -344 76 -343 c 0,68,69
 72 -343 72 -343 67 -348 c 0,70,71
 64 -351 64 -351 64 -354 c 0,72,73
 64 -358 64 -358 67.5 -362 c 128,-1,74
 71 -366 71 -366 77 -368 c 0,75,76
 93 -373 93 -373 101 -380 c 2,77,-1
 115 -389 l 1,78,-1
 92 -408 l 2,79,80
 70 -428 70 -428 70 -432 c 0,81,82
 70 -434 70 -434 77.5 -439.5 c 128,-1,83
 85 -445 85 -445 93 -447 c 0,84,0
 100 -450 100 -450 107 -450 c 0,1,2
238 -334 m 2,86,-1
 222 -325 l 2,87,88
 201 -313 201 -313 201 -298 c 0,89,90
 201 -282 201 -282 230 -262 c 0,91,92
 243 -253 243 -253 253 -253 c 0,93,94
 262 -253 262 -253 272 -260 c 0,95,96
 291 -273 291 -273 291 -287 c 0,97,98
 291 -290 291 -290 287 -302 c 0,99,100
 280 -317 280 -317 252 -329 c 0,101,85
 242 -334 242 -334 238 -334 c 2,86,-1
EndSplineSet
EndChar

StartChar: h
Encoding: 104 104 32
Width: 618
GlyphClass: 1
Flags: W
LayerCount: 2
Fore
SplineSet
130 -442 m 0,1,2
 138 -442 138 -442 157 -434 c 0,3,4
 176 -424 176 -424 195 -407 c 128,-1,5
 214 -390 214 -390 227 -371 c 2,6,-1
 230 -366 l 1,7,-1
 242 -371 l 2,8,9
 252 -375 252 -375 270 -378.5 c 128,-1,10
 288 -382 288 -382 298 -382 c 0,11,12
 314 -382 314 -382 330.5 -372.5 c 128,-1,13
 347 -363 347 -363 354 -349 c 0,14,15
 359 -339 359 -339 359 -332 c 0,16,17
 359 -310 359 -310 357.5 -303 c 128,-1,18
 356 -296 356 -296 348 -279 c 0,19,20
 338 -260 338 -260 339 -257 c 0,21,22
 340 -255 340 -255 370 -232 c 0,23,24
 402 -209 402 -209 410 -199 c 0,25,26
 424 -188 424 -188 424 -178 c 0,27,28
 424 -171 424 -171 420 -164 c 0,29,30
 419 -159 419 -159 410.5 -151 c 128,-1,31
 402 -143 402 -143 399 -143 c 256,32,33
 396 -143 396 -143 355 -186 c 2,34,-1
 313 -229 l 1,35,-1
 303 -221 l 2,36,37
 292 -210 292 -210 281.5 -206.5 c 128,-1,38
 271 -203 271 -203 252 -203 c 0,39,40
 240 -203 240 -203 233 -204 c 128,-1,41
 226 -205 226 -205 218 -208 c 0,42,43
 208 -214 208 -214 198.5 -224 c 128,-1,44
 189 -234 189 -234 187 -242 c 0,45,46
 184 -251 184 -251 184 -264 c 0,47,48
 184 -292 184 -292 198 -317 c 0,49,50
 204 -326 204 -326 204 -331 c 0,51,52
 204 -335 204 -335 178 -363 c 0,53,54
 153 -389 153 -389 140 -389 c 0,55,56
 128 -389 128 -389 119 -371 c 0,57,58
 112 -357 112 -357 104 -348 c 128,-1,59
 96 -339 96 -339 90 -339 c 0,60,61
 80 -339 80 -339 72 -351.5 c 128,-1,62
 64 -364 64 -364 64 -379 c 0,63,64
 64 -392 64 -392 82.5 -413 c 128,-1,65
 101 -434 101 -434 117 -439 c 0,66,0
 125 -442 125 -442 130 -442 c 0,1,2
267 -326 m 1,68,-1
 262 -326 l 2,69,70
 257 -326 257 -326 254.5 -324.5 c 128,-1,71
 252 -323 252 -323 249 -319 c 0,72,73
 242 -313 242 -313 242 -302 c 0,74,75
 242 -293 242 -293 248 -279 c 0,76,77
 253 -268 253 -268 259.5 -264.5 c 128,-1,78
 266 -261 266 -261 278 -261 c 0,79,80
 293 -261 293 -261 296.5 -264 c 128,-1,81
 300 -267 300 -267 300 -281 c 256,82,83
 300 -295 300 -295 295.5 -305 c 128,-1,84
 291 -315 291 -315 284 -319 c 0,85,67
 281 -321 281 -321 267 -326 c 1,68,-1
EndSplineSet
EndChar

StartChar: i
Encoding: 105 105 33
Width: 1147
GlyphClass: 1
Flags: W
LayerCount: 2
Fore
SplineSet
283 291 m 0,1,2
 294 291 294 291 293 298 c 0,3,4
 293 304 293 304 268.5 317.5 c 128,-1,5
 244 331 244 331 221 338 c 2,6,-1
 195 346 l 1,7,-1
 215 350 l 2,8,9
 252 358 252 358 286.5 384 c 128,-1,10
 321 410 321 410 332 438 c 0,11,12
 338 452 338 452 342 517 c 0,13,14
 344 562 344 562 350.5 583 c 128,-1,15
 357 604 357 604 371 612 c 0,16,17
 379 616 379 616 379 631 c 0,18,19
 379 651 379 651 366 660 c 0,20,21
 355 668 355 668 342 668 c 0,22,23
 330 668 330 668 315 660 c 0,24,25
 295 650 295 650 284 621 c 128,-1,26
 273 592 273 592 268 537 c 0,27,28
 262 473 262 473 247 441.5 c 128,-1,29
 232 410 232 410 198 390 c 0,30,31
 184 382 184 382 167.5 375.5 c 128,-1,32
 151 369 151 369 140 368 c 2,33,-1
 113 363 l 1,34,-1
 227 309 l 2,35,0
 264 291 264 291 283 291 c 0,1,2
740 311.5 m 128,-1,37
 760 315 760 315 766 321 c 0,38,39
 777 332 777 332 777 345 c 0,40,41
 777 354 777 354 772 363 c 128,-1,42
 767 372 767 372 758 378 c 0,43,44
 742 388 742 388 698.5 398.5 c 128,-1,45
 655 409 655 409 628 409 c 0,46,47
 606 409 606 409 606 401 c 0,48,49
 606 396 606 396 616 391.5 c 128,-1,50
 626 387 626 387 643 384 c 0,51,52
 681 378 681 378 696.5 370.5 c 128,-1,53
 712 363 712 363 712 351 c 0,54,55
 712 344 712 344 705 338.5 c 128,-1,56
 698 333 698 333 688 331 c 0,57,58
 667 328 667 328 667 319 c 0,59,60
 667 308 667 308 700 308 c 0,61,36
 720 308 720 308 740 311.5 c 128,-1,37
915 311.5 m 128,-1,63
 935 315 935 315 941 321 c 0,64,65
 952 332 952 332 952 345 c 0,66,67
 952 354 952 354 947 363 c 128,-1,68
 942 372 942 372 933 378 c 0,69,70
 918 388 918 388 874 398.5 c 128,-1,71
 830 409 830 409 804 409 c 0,72,73
 781 409 781 409 781 401 c 0,74,75
 781 396 781 396 791.5 391 c 128,-1,76
 802 386 802 386 819 384 c 0,77,78
 857 378 857 378 872 370.5 c 128,-1,79
 887 363 887 363 887 351 c 0,80,81
 887 344 887 344 880 338.5 c 128,-1,82
 873 333 873 333 863 331 c 0,83,84
 842 328 842 328 842 319 c 0,85,86
 842 308 842 308 875 308 c 0,87,62
 895 308 895 308 915 311.5 c 128,-1,63
976 -306 m 0,89,90
 994 -306 994 -306 998 -302 c 0,91,92
 1002 -299 1002 -299 1009 -270 c 0,93,94
 1015 -248 1015 -248 1015 -238 c 0,95,96
 1015 -230 1015 -230 1014 -224 c 0,97,98
 1010 -191 1010 -191 997.5 -171 c 128,-1,99
 985 -151 985 -151 959 -137 c 0,100,101
 938 -126 938 -126 919.5 -113 c 128,-1,102
 901 -100 901 -100 892 -90 c 0,103,104
 884 -81 884 -81 877.5 -67 c 128,-1,105
 871 -53 871 -53 863 -24 c 0,106,107
 857 2 857 2 857 14 c 0,108,109
 857 64 857 64 901 204 c 2,110,-1
 912 238 l 1,111,-1
 906 244 l 2,112,113
 903 248 903 248 890 254.5 c 128,-1,114
 877 261 877 261 865 266 c 0,115,116
 863 267 863 267 860 267 c 256,117,118
 857 267 857 267 853 262 c 0,119,120
 850 259 850 259 844 240 c 2,121,-1
 840 224 l 1,122,-1
 833 233 l 2,123,124
 813 256 813 256 797 256 c 0,125,126
 789 256 789 256 775 251 c 128,-1,127
 761 246 761 246 748 239 c 0,128,129
 727 230 727 230 701.5 205.5 c 128,-1,130
 676 181 676 181 662 157 c 0,131,132
 643 125 643 125 643 96 c 0,133,134
 643 75 643 75 654.5 60.5 c 128,-1,135
 666 46 666 46 687 39 c 0,136,137
 697 37 697 37 701 37 c 0,138,139
 732 37 732 37 751.5 46.5 c 128,-1,140
 771 56 771 56 800 84 c 0,141,142
 816 100 816 100 820 102.5 c 128,-1,143
 824 105 824 105 822 99 c 0,144,145
 816 60 816 60 816 22 c 0,146,147
 816 -5 816 -5 818 -14 c 0,148,149
 825 -47 825 -47 845 -78.5 c 128,-1,150
 865 -110 865 -110 905 -151 c 0,151,152
 952 -200 952 -200 952 -221 c 0,153,154
 952 -225 952 -225 948.5 -235.5 c 128,-1,155
 945 -246 945 -246 942 -256 c 0,156,157
 938 -268 938 -268 935 -278 c 128,-1,158
 932 -288 932 -288 931 -292 c 0,159,160
 931 -298 931 -298 937 -300.5 c 128,-1,161
 943 -303 943 -303 958 -305 c 0,162,88
 965 -306 965 -306 976 -306 c 0,89,90
735 76 m 0,164,165
 729 76 729 76 726 81 c 0,166,167
 721 89 721 89 721 99 c 0,168,169
 721 124 721 124 745 164 c 0,170,171
 759 187 759 187 777.5 204.5 c 128,-1,172
 796 222 796 222 804 219 c 0,173,174
 806 217 806 217 806.5 215 c 128,-1,175
 807 213 807 213 806 208 c 0,176,177
 806 196 806 196 798 172 c 0,178,179
 790 138 790 138 776 112 c 128,-1,180
 762 86 762 86 748 80 c 0,181,163
 738 76 738 76 735 76 c 0,164,165
EndSplineSet
EndChar

StartChar: j
Encoding: 106 106 34
Width: 779
GlyphClass: 1
Flags: W
LayerCount: 2
Fore
SplineSet
707 -395 m 0,1,2
 730 -395 730 -395 735 -393 c 128,-1,3
 740 -391 740 -391 751 -378 c 0,4,5
 756 -372 756 -372 757.5 -368.5 c 128,-1,6
 759 -365 759 -365 759 -357 c 0,7,8
 759 -348 759 -348 755.5 -342 c 128,-1,9
 752 -336 752 -336 743 -327 c 0,10,11
 735 -320 735 -320 724.5 -315 c 128,-1,12
 714 -310 714 -310 697 -304 c 0,13,14
 670 -293 670 -293 653 -291 c 0,15,16
 634 -288 634 -288 616.5 -284.5 c 128,-1,17
 599 -281 599 -281 589 -279 c 2,18,-1
 584 -276 l 1,19,-1
 584 -246 l 1,20,-1
 577 -240 l 2,21,22
 574 -236 574 -236 572 -234.5 c 128,-1,23
 570 -233 570 -233 565 -233 c 0,24,25
 554 -233 554 -233 546 -241 c 0,26,27
 542 -245 542 -245 541.5 -248.5 c 128,-1,28
 541 -252 541 -252 542 -260 c 2,29,-1
 544 -275 l 1,30,-1
 531 -274 l 2,31,32
 517 -272 517 -272 497 -272 c 2,33,-1
 475 -272 l 1,34,-1
 474 -264 l 2,35,36
 472 -253 472 -253 468 -240 c 128,-1,37
 464 -227 464 -227 460 -221 c 0,38,39
 456 -213 456 -213 449 -205.5 c 128,-1,40
 442 -198 442 -198 435 -195 c 0,41,42
 429 -193 429 -193 423 -193 c 0,43,44
 410 -193 410 -193 406 -194 c 128,-1,45
 402 -195 402 -195 396 -200 c 0,46,47
 393 -201 393 -201 375 -217 c 0,48,49
 363 -230 363 -230 354 -247 c 0,50,51
 346 -263 346 -263 340 -269 c 2,52,-1
 333 -273 l 1,53,-1
 302 -274 l 2,54,55
 266 -276 266 -276 248 -279 c 2,56,-1
 162 -282 l 2,57,58
 109 -284 109 -284 92.5 -285.5 c 128,-1,59
 76 -287 76 -287 68 -291 c 0,60,61
 63 -293 63 -293 61.5 -297.5 c 128,-1,62
 60 -302 60 -302 62 -305 c 0,63,64
 64 -307 64 -307 74 -307 c 2,65,-1
 203 -303 l 2,66,67
 285 -300 285 -300 318 -300 c 2,68,-1
 333 -300 l 1,69,-1
 335 -306 l 2,70,71
 339 -314 339 -314 339 -328 c 0,72,73
 340 -344 340 -344 343.5 -353.5 c 128,-1,74
 347 -363 347 -363 357 -373 c 0,75,76
 376 -390 376 -390 395 -390 c 0,77,78
 405 -390 405 -390 412 -386 c 0,79,80
 427 -379 427 -379 442 -358.5 c 128,-1,81
 457 -338 457 -338 467 -312 c 0,82,83
 470 -300 470 -300 474 -300 c 0,84,85
 488 -301 488 -301 509 -302.5 c 128,-1,86
 530 -304 530 -304 539 -306 c 0,87,88
 541 -306 541 -306 535 -321 c 0,89,90
 530 -336 530 -336 530 -340 c 0,91,92
 530 -345 530 -345 535 -348.5 c 128,-1,93
 540 -352 540 -352 547 -352 c 256,94,95
 554 -352 554 -352 561 -348 c 0,96,97
 582 -339 582 -339 582 -316 c 2,98,-1
 582 -310 l 1,99,-1
 592 -310 l 2,100,101
 602 -310 602 -310 621 -313.5 c 128,-1,102
 640 -317 640 -317 647 -320 c 0,103,104
 665 -329 665 -329 671 -343 c 0,105,106
 673 -353 673 -353 673 -355 c 0,107,108
 673 -363 673 -363 669 -372 c 0,109,110
 666 -378 666 -378 665.5 -381 c 128,-1,111
 665 -384 665 -384 667 -386 c 2,112,-1
 675 -392 l 2,113,0
 681 -395 681 -395 707 -395 c 0,1,2
404 -272 m 1,114,-1
 396 -272 l 2,115,116
 384 -272 384 -272 382 -270 c 128,-1,117
 380 -268 380 -268 382 -260 c 0,118,119
 382 -245 382 -245 397 -238 c 0,120,121
 407 -233 407 -233 410 -233 c 0,122,123
 415 -233 415 -233 419 -236 c 0,124,125
 425 -240 425 -240 427.5 -249.5 c 128,-1,126
 430 -259 430 -259 428 -267 c 2,127,-1
 426 -272 l 1,128,-1
 404 -272 l 1,114,-1
397 -341 m 256,130,131
 392 -341 392 -341 386.5 -337 c 128,-1,132
 381 -333 381 -333 379 -329 c 0,133,134
 378 -326 378 -326 378 -314 c 0,135,136
 378 -306 378 -306 379 -303 c 2,137,-1
 380 -297 l 1,138,-1
 425 -297 l 1,139,-1
 424 -304 l 2,140,141
 423 -311 423 -311 418 -321.5 c 128,-1,142
 413 -332 413 -332 408 -337 c 0,143,129
 402 -341 402 -341 397 -341 c 256,130,131
EndSplineSet
EndChar

StartChar: m
Encoding: 109 109 35
Width: 709
GlyphClass: 1
Flags: W
LayerCount: 2
Fore
SplineSet
225 245 m 256,1,2
 233 245 233 245 242 250 c 0,3,4
 256 254 256 254 260 258 c 128,-1,5
 264 262 264 262 264 275 c 0,6,7
 264 287 264 287 261 314 c 0,8,9
 260 333 260 333 258 350 c 128,-1,10
 256 367 256 367 256 371 c 2,11,-1
 256 376 l 1,12,-1
 284 376 l 1,13,-1
 358 374 l 2,14,15
 374 373 374 373 396 373 c 0,16,17
 410 373 410 373 416 374.5 c 128,-1,18
 422 376 422 376 424 381 c 0,19,20
 426 384 426 384 426 393 c 0,21,22
 426 412 426 412 424 433 c 2,23,-1
 420 493 l 1,24,-1
 418 504 l 1,25,-1
 498 502 l 1,26,-1
 539 502 l 2,27,28
 566 502 566 502 576 503.5 c 128,-1,29
 586 505 586 505 588 509 c 128,-1,30
 590 513 590 513 589 524 c 0,31,32
 585 539 585 539 579 545 c 2,33,-1
 571 552 l 1,34,-1
 334 553 l 1,35,-1
 330 549 l 2,36,37
 328 546 328 546 328 539 c 0,38,39
 328 529 328 529 333 518 c 0,40,41
 344 495 344 495 347 447 c 2,42,-1
 348 423 l 1,43,-1
 172 425 l 1,44,-1
 168 420 l 2,45,46
 164 412 164 412 164 408 c 0,47,48
 164 405 164 405 168 397 c 0,49,50
 176 385 176 385 179.5 368.5 c 128,-1,51
 183 352 183 352 185 321 c 0,52,53
 187 289 187 289 192 275 c 128,-1,54
 197 261 197 261 210 252 c 0,55,0
 217 245 217 245 225 245 c 256,1,2
127.5 -249 m 128,-1,57
 130 -248 130 -248 132 -247 c 0,58,59
 141 -244 141 -244 150 -244 c 2,60,-1
 162 -243 l 1,61,-1
 201 -128 l 2,62,63
 221 -68 221 -68 241 -14 c 0,64,65
 242 -14 242 -14 264 -55 c 0,66,67
 286 -98 286 -98 309 -159 c 0,68,69
 331 -217 331 -217 335 -226 c 0,70,71
 337 -229 337 -229 342 -229 c 0,72,73
 350 -229 350 -229 359 -223 c 0,74,75
 368 -218 368 -218 371 -212.5 c 128,-1,76
 374 -207 374 -207 374 -197 c 0,77,78
 374 -182 374 -182 370 -165.5 c 128,-1,79
 366 -149 366 -149 356 -118 c 0,80,81
 348 -92 348 -92 331.5 -53 c 128,-1,82
 315 -14 315 -14 308 0 c 0,83,84
 300 12 300 12 290 35 c 0,85,86
 283 51 283 51 281.5 56.5 c 128,-1,87
 280 62 280 62 280 75 c 0,88,89
 280 85 280 85 283 94 c 128,-1,90
 286 103 286 103 295 124 c 0,91,92
 302 141 302 141 309 152 c 128,-1,93
 316 163 316 163 328 179 c 2,94,-1
 350 208 l 1,95,-1
 347 215 l 1,96,-1
 345 222 l 1,97,-1
 331 223 l 2,98,99
 316 223 316 223 314 222 c 0,100,101
 303 216 303 216 279 168 c 2,102,-1
 259 126 l 2,103,104
 257 120 257 120 255 117.5 c 128,-1,105
 253 115 253 115 250 115 c 0,106,107
 245 115 245 115 239 120.5 c 128,-1,108
 233 126 233 126 208 155 c 2,109,-1
 175 196 l 1,110,-1
 168 195 l 2,111,112
 159 194 159 194 149 190 c 128,-1,113
 139 186 139 186 133 179 c 0,114,115
 126 172 126 172 123 165.5 c 128,-1,116
 120 159 120 159 120 148 c 0,117,118
 120 138 120 138 122 134.5 c 128,-1,119
 124 131 124 131 130 130 c 0,120,121
 145 127 145 127 164 108 c 0,122,123
 172 99 172 99 188 75.5 c 128,-1,124
 204 52 204 52 212 37 c 2,125,-1
 219 24 l 1,126,-1
 171 -107 l 2,127,128
 122 -236 122 -236 122 -242 c 2,129,-1
 123 -248 l 2,130,56
 125 -250 125 -250 127.5 -249 c 128,-1,57
EndSplineSet
EndChar

StartChar: n
Encoding: 110 110 36
Width: 554
GlyphClass: 1
Flags: W
LayerCount: 2
Fore
SplineSet
259 248 m 2,1,-1
 264 253 l 1,2,-1
 260 309 l 1,3,-1
 255 369 l 2,4,5
 255 371 255 371 265 371.5 c 128,-1,6
 275 372 275 372 299 372 c 0,7,8
 342 372 342 372 360 370 c 0,9,10
 389 367 389 367 403 367 c 0,11,12
 422 367 422 367 430 375 c 0,13,14
 434 379 434 379 434 385 c 0,15,16
 434 408 434 408 421 417 c 0,17,18
 418 420 418 420 413.5 420.5 c 128,-1,19
 409 421 409 421 401 420 c 2,20,-1
 340 419 l 2,21,22
 290 419 290 419 224 421 c 2,23,-1
 168 423 l 1,24,-1
 165 418 l 2,25,26
 162 414 162 414 162 408 c 0,27,28
 162 399 162 399 168 387 c 0,29,30
 179 360 179 360 182 311 c 0,31,32
 183 278 183 278 188.5 264.5 c 128,-1,33
 194 251 194 251 209 240 c 0,34,35
 216 235 216 235 224 235 c 0,36,37
 231 235 231 235 242 239 c 0,38,0
 253 242 253 242 259 248 c 2,1,-1
127.5 -249 m 128,-1,40
 130 -248 130 -248 132 -247 c 0,41,42
 141 -244 141 -244 150 -244 c 2,43,-1
 162 -243 l 1,44,-1
 201 -128 l 2,45,46
 221 -68 221 -68 241 -14 c 0,47,48
 242 -14 242 -14 264 -55 c 0,49,50
 286 -98 286 -98 309 -159 c 0,51,52
 331 -217 331 -217 335 -226 c 0,53,54
 337 -229 337 -229 342 -229 c 0,55,56
 350 -229 350 -229 359 -223 c 0,57,58
 368 -218 368 -218 371 -212.5 c 128,-1,59
 374 -207 374 -207 374 -197 c 0,60,61
 374 -182 374 -182 370 -165.5 c 128,-1,62
 366 -149 366 -149 356 -118 c 0,63,64
 348 -92 348 -92 331.5 -53 c 128,-1,65
 315 -14 315 -14 308 0 c 0,66,67
 300 12 300 12 290 35 c 0,68,69
 283 51 283 51 281.5 56.5 c 128,-1,70
 280 62 280 62 280 75 c 0,71,72
 280 85 280 85 283 94 c 128,-1,73
 286 103 286 103 295 124 c 0,74,75
 302 141 302 141 309 152 c 128,-1,76
 316 163 316 163 328 179 c 2,77,-1
 350 208 l 1,78,-1
 347 215 l 1,79,-1
 345 222 l 1,80,-1
 331 223 l 2,81,82
 316 223 316 223 314 222 c 0,83,84
 303 216 303 216 279 168 c 2,85,-1
 259 126 l 2,86,87
 257 120 257 120 255 117.5 c 128,-1,88
 253 115 253 115 250 115 c 0,89,90
 245 115 245 115 239 120.5 c 128,-1,91
 233 126 233 126 208 155 c 2,92,-1
 175 196 l 1,93,-1
 168 195 l 2,94,95
 159 194 159 194 149 190 c 128,-1,96
 139 186 139 186 133 179 c 0,97,98
 126 172 126 172 123 165.5 c 128,-1,99
 120 159 120 159 120 148 c 0,100,101
 120 138 120 138 122 134.5 c 128,-1,102
 124 131 124 131 130 130 c 0,103,104
 145 127 145 127 164 108 c 0,105,106
 172 99 172 99 188 75.5 c 128,-1,107
 204 52 204 52 212 37 c 2,108,-1
 219 24 l 1,109,-1
 171 -107 l 2,110,111
 122 -236 122 -236 122 -242 c 2,112,-1
 123 -248 l 2,113,39
 125 -250 125 -250 127.5 -249 c 128,-1,40
EndSplineSet
EndChar

StartChar: o
Encoding: 111 111 37
Width: 1290
GlyphClass: 1
Flags: W
LayerCount: 2
Fore
SplineSet
1142.5 142 m 128,-1,1
 1146 146 1146 146 1146 153 c 0,2,3
 1146 165 1146 165 1136 174 c 0,4,5
 1073 227 1073 227 994 238 c 0,6,7
 978 241 978 241 946 241 c 0,8,9
 917 241 917 241 846 238 c 0,10,11
 728 236 728 236 688 236 c 0,12,13
 639 236 639 236 611 238 c 0,14,15
 579 243 579 243 548.5 249 c 128,-1,16
 518 255 518 255 507 261 c 0,17,18
 503 263 503 263 501 263 c 0,19,20
 491 263 491 263 491 250 c 0,21,22
 491 225 491 225 522 206.5 c 128,-1,23
 553 188 553 188 609 177 c 0,24,25
 669 166 669 166 726 166 c 2,26,-1
 757 167 l 2,27,28
 861 169 861 169 946 169 c 0,29,30
 990 169 990 169 998 168 c 0,31,32
 1055 165 1055 165 1095 155 c 0,33,34
 1125 149 1125 149 1133 142 c 0,35,0
 1139 138 1139 138 1142.5 142 c 128,-1,1
535 28 m 128,-1,37
 555 32 555 32 562 37 c 0,38,39
 573 48 573 48 573 61 c 0,40,41
 573 70 573 70 568 79 c 128,-1,42
 563 88 563 88 554 94 c 0,43,44
 538 104 538 104 493.5 115 c 128,-1,45
 449 126 449 126 423 126 c 0,46,47
 400 126 400 126 400 118 c 0,48,49
 400 113 400 113 410.5 107.5 c 128,-1,50
 421 102 421 102 438 100 c 0,51,52
 476 94 476 94 491.5 86.5 c 128,-1,53
 507 79 507 79 507 67 c 0,54,55
 507 60 507 60 500 54.5 c 128,-1,56
 493 49 493 49 483 47 c 0,57,58
 462 44 462 44 462 35 c 0,59,60
 462 30 462 30 471 27 c 128,-1,61
 480 24 480 24 496 24 c 0,62,36
 515 24 515 24 535 28 c 128,-1,37
712 28 m 128,-1,64
 732 32 732 32 739 37 c 0,65,66
 750 48 750 48 750 61 c 0,67,68
 750 70 750 70 745 79 c 128,-1,69
 740 88 740 88 731 94 c 0,70,71
 715 104 715 104 670.5 115 c 128,-1,72
 626 126 626 126 600 126 c 0,73,74
 577 126 577 126 577 118 c 0,75,76
 577 113 577 113 587.5 107.5 c 128,-1,77
 598 102 598 102 615 100 c 0,78,79
 653 94 653 94 668.5 86.5 c 128,-1,80
 684 79 684 79 684 67 c 0,81,82
 684 60 684 60 677 54.5 c 128,-1,83
 670 49 670 49 660 47 c 0,84,85
 639 44 639 44 639 35 c 0,86,87
 639 30 639 30 648 27 c 128,-1,88
 657 24 657 24 673 24 c 0,89,63
 692 24 692 24 712 28 c 128,-1,64
865 64 m 0,91,92
 887 64 887 64 895 65 c 128,-1,93
 903 66 903 66 906.5 70 c 128,-1,94
 910 74 910 74 915 87 c 0,95,96
 919 96 919 96 925.5 105.5 c 128,-1,97
 932 115 932 115 937 117 c 0,98,99
 944 122 944 122 936.5 123.5 c 128,-1,100
 929 125 929 125 904 125 c 256,101,102
 879 125 879 125 871 124 c 128,-1,103
 863 123 863 123 859 119 c 128,-1,104
 855 115 855 115 851 104 c 0,105,106
 848 95 848 95 843 88 c 128,-1,107
 838 81 838 81 834 80 c 256,108,109
 830 79 830 79 827 75.5 c 128,-1,110
 824 72 824 72 824 70 c 0,111,90
 824 64 824 64 865 64 c 0,91,92
987 64 m 0,113,114
 1009 64 1009 64 1016.5 65 c 128,-1,115
 1024 66 1024 66 1027.5 70 c 128,-1,116
 1031 74 1031 74 1037 87 c 0,117,118
 1041 97 1041 97 1047.5 106 c 128,-1,119
 1054 115 1054 115 1059 117 c 0,120,121
 1066 122 1066 122 1058.5 123.5 c 128,-1,122
 1051 125 1051 125 1025 125 c 0,123,124
 1001 125 1001 125 992.5 124 c 128,-1,125
 984 123 984 123 980.5 119.5 c 128,-1,126
 977 116 977 116 973 104 c 0,127,128
 970 95 970 95 965 88 c 128,-1,129
 960 81 960 81 956 80 c 256,130,131
 952 79 952 79 949 75.5 c 128,-1,132
 946 72 946 72 946 70 c 0,133,112
 946 64 946 64 987 64 c 0,113,114
337 -138 m 0,135,136
 401 -136 401 -136 432 -133 c 128,-1,137
 463 -130 463 -130 534 -117 c 0,138,139
 747 -80 747 -80 834 -75 c 2,140,-1
 862 -73 l 1,141,-1
 838 -91 l 2,142,143
 814 -108 814 -108 814 -111 c 0,144,145
 814 -115 814 -115 828 -125.5 c 128,-1,146
 842 -136 842 -136 849 -138 c 2,147,-1
 873 -138 l 2,148,149
 910 -138 910 -138 919 -136.5 c 128,-1,150
 928 -135 928 -135 945 -129 c 0,151,152
 965 -118 965 -118 982 -103 c 128,-1,153
 999 -88 999 -88 999 -81 c 0,154,155
 1005 -42 1005 -42 910 -27 c 0,156,157
 886 -25 886 -25 878 -25 c 2,158,-1
 825 -27 l 2,159,160
 712 -35 712 -35 636 -48 c 0,161,162
 501 -71 501 -71 449 -77.5 c 128,-1,163
 397 -84 397 -84 349 -84 c 0,164,165
 326 -84 326 -84 312 -83 c 128,-1,166
 298 -82 298 -82 294 -81 c 0,167,168
 291 -78 291 -78 324 -51 c 0,169,170
 356 -24 356 -24 358 -19 c 256,171,172
 360 -14 360 -14 350.5 -6.5 c 128,-1,173
 341 1 341 1 331 3 c 0,174,175
 327 5 327 5 317 5 c 0,176,177
 305 5 305 5 294 3 c 0,178,179
 232 -4 232 -4 209 -9.5 c 128,-1,180
 186 -15 186 -15 171 -27 c 0,181,182
 150 -47 150 -47 150 -73 c 0,183,184
 150 -84 150 -84 151.5 -87.5 c 128,-1,185
 153 -91 153 -91 160 -99 c 0,186,187
 186 -126 186 -126 240 -135 c 0,188,134
 255 -138 255 -138 337 -138 c 0,135,136
EndSplineSet
EndChar

StartChar: p
Encoding: 112 112 38
Width: 721
GlyphClass: 1
Flags: W
LayerCount: 2
Fore
SplineSet
292 434 m 128,-1,1
 312 438 312 438 319 443 c 0,2,3
 330 454 330 454 330 467 c 0,4,5
 330 476 330 476 325 485 c 128,-1,6
 320 494 320 494 311 500 c 0,7,8
 295 510 295 510 250.5 521 c 128,-1,9
 206 532 206 532 180 532 c 0,10,11
 157 532 157 532 157 524 c 0,12,13
 157 519 157 519 167.5 513.5 c 128,-1,14
 178 508 178 508 195 506 c 0,15,16
 233 500 233 500 248.5 492.5 c 128,-1,17
 264 485 264 485 264 473 c 0,18,19
 264 466 264 466 257 460.5 c 128,-1,20
 250 455 250 455 240 453 c 0,21,22
 219 450 219 450 219 441 c 0,23,24
 219 436 219 436 228 433 c 128,-1,25
 237 430 237 430 253 430 c 0,26,0
 272 430 272 430 292 434 c 128,-1,1
469 434 m 128,-1,28
 489 438 489 438 496 443 c 0,29,30
 507 454 507 454 507 467 c 0,31,32
 507 476 507 476 502 485 c 128,-1,33
 497 494 497 494 488 500 c 0,34,35
 472 510 472 510 427.5 521 c 128,-1,36
 383 532 383 532 357 532 c 0,37,38
 334 532 334 532 334 524 c 0,39,40
 334 519 334 519 344.5 513.5 c 128,-1,41
 355 508 355 508 372 506 c 0,42,43
 410 500 410 500 425.5 492.5 c 128,-1,44
 441 485 441 485 441 473 c 0,45,46
 441 466 441 466 434 460.5 c 128,-1,47
 427 455 427 455 417 453 c 0,48,49
 396 450 396 450 396 441 c 0,50,51
 396 436 396 436 405 433 c 128,-1,52
 414 430 414 430 430 430 c 0,53,27
 449 430 449 430 469 434 c 128,-1,28
302 75 m 256,55,56
 308 75 308 75 324 78 c 0,57,58
 338 81 338 81 347 87 c 128,-1,59
 356 93 356 93 356 98 c 0,60,61
 356 105 356 105 340 109 c 0,62,63
 312 116 312 116 293.5 132.5 c 128,-1,64
 275 149 275 149 275 164 c 0,65,66
 275 174 275 174 284 192 c 0,67,68
 301 226 301 226 306 240.5 c 128,-1,69
 311 255 311 255 311 274 c 256,70,71
 311 293 311 293 309 301.5 c 128,-1,72
 307 310 307 310 301 320 c 0,73,74
 288 342 288 342 258 355.5 c 128,-1,75
 228 369 228 369 191 369 c 0,76,77
 152 369 152 369 126 341.5 c 128,-1,78
 100 314 100 314 100 273 c 0,79,80
 100 249 100 249 110.5 238.5 c 128,-1,81
 121 228 121 228 145 228 c 0,82,83
 156 228 156 228 161.5 230 c 128,-1,84
 167 232 167 232 170 237 c 0,85,86
 174 242 174 242 174 247 c 0,87,88
 174 254 174 254 169 264 c 0,89,90
 164 277 164 277 164 284 c 0,91,92
 164 301 164 301 183 310 c 0,93,94
 190 314 190 314 204 314 c 256,95,96
 218 314 218 314 233 310 c 128,-1,97
 248 306 248 306 255 300 c 0,98,99
 260 295 260 295 260 290 c 0,100,101
 260 284 260 284 255 272 c 128,-1,102
 250 260 250 260 247 254 c 0,103,104
 229 214 229 214 229 172 c 0,105,106
 229 139 229 139 245.5 112 c 128,-1,107
 262 85 262 85 285 78 c 0,108,54
 296 75 296 75 302 75 c 256,55,56
567 75 m 256,110,111
 573 75 573 75 589 78 c 0,112,113
 603 81 603 81 612 86.5 c 128,-1,114
 621 92 621 92 621 97 c 0,115,116
 621 105 621 105 605 109 c 0,117,118
 577 116 577 116 558.5 132.5 c 128,-1,119
 540 149 540 149 540 164 c 0,120,121
 540 174 540 174 549 192 c 0,122,123
 566 226 566 226 571 240.5 c 128,-1,124
 576 255 576 255 576 274 c 256,125,126
 576 293 576 293 574 301.5 c 128,-1,127
 572 310 572 310 566 320 c 0,128,129
 553 342 553 342 523 355.5 c 128,-1,130
 493 369 493 369 456 369 c 0,131,132
 417 369 417 369 391 341.5 c 128,-1,133
 365 314 365 314 365 273 c 0,134,135
 365 249 365 249 375.5 238.5 c 128,-1,136
 386 228 386 228 410 228 c 0,137,138
 421 228 421 228 426.5 230 c 128,-1,139
 432 232 432 232 435 237 c 0,140,141
 439 242 439 242 439 247 c 0,142,143
 439 254 439 254 434 264 c 0,144,145
 429 277 429 277 429 284 c 0,146,147
 429 301 429 301 448 310 c 0,148,149
 455 314 455 314 469 314 c 256,150,151
 483 314 483 314 498 310 c 128,-1,152
 513 306 513 306 520 300 c 0,153,154
 525 295 525 295 525 290 c 0,155,156
 525 284 525 284 520 272 c 128,-1,157
 515 260 515 260 512 254 c 0,158,159
 494 214 494 214 494 172 c 0,160,161
 494 139 494 139 510.5 112 c 128,-1,162
 527 85 527 85 550 78 c 0,163,109
 561 75 561 75 567 75 c 256,110,111
EndSplineSet
EndChar

StartChar: q
Encoding: 113 113 39
Width: 629
GlyphClass: 1
Flags: W
LayerCount: 2
Fore
SplineSet
404 -654 m 0,1,2
 420 -654 420 -654 424 -650 c 0,3,4
 427 -647 427 -647 434 -621 c 0,5,6
 439 -601 439 -601 439 -592 c 0,7,8
 439 -585 439 -585 438 -579 c 0,9,10
 435 -549 435 -549 423 -530.5 c 128,-1,11
 411 -512 411 -512 388 -500 c 0,12,13
 345 -477 345 -477 327 -457 c 0,14,15
 319 -449 319 -449 313.5 -436.5 c 128,-1,16
 308 -424 308 -424 301 -397 c 0,17,18
 295 -375 295 -375 295 -363 c 0,19,20
 295 -319 295 -319 335 -190 c 2,21,-1
 345 -159 l 1,22,-1
 340 -154 l 2,23,24
 337 -150 337 -150 325.5 -144 c 128,-1,25
 314 -138 314 -138 303 -134 c 0,26,27
 298 -132 298 -132 296.5 -132.5 c 128,-1,28
 295 -133 295 -133 292 -137 c 0,29,30
 287 -142 287 -142 284 -157 c 2,31,-1
 280 -172 l 1,32,-1
 274 -164 l 2,33,34
 256 -143 256 -143 241 -143 c 0,35,36
 234 -143 234 -143 221 -147 c 128,-1,37
 208 -151 208 -151 196 -158 c 0,38,39
 177 -166 177 -166 154 -188.5 c 128,-1,40
 131 -211 131 -211 118 -233 c 0,41,42
 100 -263 100 -263 100 -288 c 0,43,44
 100 -307 100 -307 110.5 -320.5 c 128,-1,45
 121 -334 121 -334 141 -340 c 0,46,47
 149 -342 149 -342 154 -342 c 0,48,49
 181 -342 181 -342 199.5 -333 c 128,-1,50
 218 -324 218 -324 244 -299 c 0,51,52
 255 -287 255 -287 260 -283.5 c 128,-1,53
 265 -280 265 -280 264 -285 c 0,54,55
 258 -321 258 -321 258 -355 c 0,56,57
 258 -380 258 -380 260 -388 c 0,58,59
 266 -418 266 -418 284.5 -447 c 128,-1,60
 303 -476 303 -476 339 -513 c 0,61,62
 382 -556 382 -556 382 -577 c 0,63,64
 382 -582 382 -582 373 -608 c 0,65,66
 369 -619 369 -619 366.5 -628 c 128,-1,67
 364 -637 364 -637 363 -641 c 0,68,69
 363 -646 363 -646 368.5 -648.5 c 128,-1,70
 374 -651 374 -651 387 -653 c 0,71,0
 393 -654 393 -654 404 -654 c 0,1,2
184 -306 m 0,73,74
 179 -306 179 -306 176 -302 c 0,75,76
 172 -297 172 -297 172 -286 c 0,77,78
 172 -263 172 -263 194 -226 c 0,79,80
 206 -206 206 -206 223 -190 c 128,-1,81
 240 -174 240 -174 247 -176 c 0,82,83
 249 -178 249 -178 249.5 -180 c 128,-1,84
 250 -182 250 -182 249 -186 c 0,85,86
 249 -195 249 -195 242 -219 c 0,87,88
 235 -250 235 -250 222 -273.5 c 128,-1,89
 209 -297 209 -297 196 -303 c 0,90,72
 188 -306 188 -306 184 -306 c 0,73,74
EndSplineSet
EndChar

StartChar: r
Encoding: 114 114 40
Width: 672
GlyphClass: 1
Flags: W
LayerCount: 2
Fore
SplineSet
292.5 -126 m 128,-1,1
 313 -122 313 -122 319 -117 c 0,2,3
 330 -107 330 -107 330 -92 c 0,4,5
 330 -72 330 -72 311 -60 c 0,6,7
 295 -50 295 -50 250.5 -39 c 128,-1,8
 206 -28 206 -28 180 -28 c 0,9,10
 157 -28 157 -28 157 -36 c 0,11,12
 157 -41 157 -41 167.5 -46.5 c 128,-1,13
 178 -52 178 -52 195 -54 c 0,14,15
 233 -60 233 -60 248.5 -67.5 c 128,-1,16
 264 -75 264 -75 264 -87 c 0,17,18
 264 -94 264 -94 257 -99.5 c 128,-1,19
 250 -105 250 -105 240 -107 c 0,20,21
 219 -110 219 -110 219 -119 c 0,22,23
 219 -124 219 -124 228 -127 c 128,-1,24
 237 -130 237 -130 253 -130 c 0,25,0
 272 -130 272 -130 292.5 -126 c 128,-1,1
469.5 -126 m 128,-1,27
 490 -122 490 -122 496 -117 c 0,28,29
 507 -107 507 -107 507 -92 c 0,30,31
 507 -72 507 -72 488 -60 c 0,32,33
 472 -50 472 -50 427.5 -39 c 128,-1,34
 383 -28 383 -28 357 -28 c 0,35,36
 334 -28 334 -28 334 -36 c 0,37,38
 334 -41 334 -41 344.5 -46.5 c 128,-1,39
 355 -52 355 -52 372 -54 c 0,40,41
 410 -60 410 -60 425.5 -67.5 c 128,-1,42
 441 -75 441 -75 441 -87 c 0,43,44
 441 -94 441 -94 434 -99.5 c 128,-1,45
 427 -105 427 -105 417 -107 c 0,46,47
 396 -110 396 -110 396 -119 c 0,48,49
 396 -124 396 -124 405 -127 c 128,-1,50
 414 -130 414 -130 430 -130 c 0,51,26
 449 -130 449 -130 469.5 -126 c 128,-1,27
407.5 -641 m 128,-1,53
 409 -646 409 -646 415 -647 c 128,-1,54
 421 -648 421 -648 440 -648 c 0,55,56
 456 -648 456 -648 463.5 -645.5 c 128,-1,57
 471 -643 471 -643 469 -638 c 0,58,59
 466 -634 466 -634 466 -625 c 0,60,61
 466 -611 466 -611 476 -586 c 128,-1,62
 486 -561 486 -561 504 -532 c 0,63,64
 533 -482 533 -482 533 -453 c 0,65,66
 533 -437 533 -437 523 -430 c 0,67,68
 519 -427 519 -427 503 -426 c 128,-1,69
 487 -425 487 -425 468 -426 c 2,70,-1
 423 -430 l 1,71,-1
 433 -376 l 2,72,73
 448 -300 448 -300 448 -261 c 0,74,75
 448 -231 448 -231 439 -214 c 128,-1,76
 430 -197 430 -197 409 -187 c 0,77,78
 387 -175 387 -175 342 -175 c 0,79,80
 320 -175 320 -175 300.5 -178.5 c 128,-1,81
 281 -182 281 -182 269 -189 c 0,82,83
 240 -207 240 -207 228 -229 c 128,-1,84
 216 -251 216 -251 216 -287 c 0,85,86
 218 -329 218 -329 225 -351 c 2,87,-1
 232 -372 l 1,88,-1
 201 -366 l 2,89,90
 196 -365 196 -365 187 -365 c 0,91,92
 161 -365 161 -365 141.5 -377 c 128,-1,93
 122 -389 122 -389 112 -411 c 0,94,95
 100 -438 100 -438 100 -462 c 0,96,97
 100 -506 100 -506 133.5 -535.5 c 128,-1,98
 167 -565 167 -565 221 -565 c 0,99,100
 270 -565 270 -565 295.5 -541.5 c 128,-1,101
 321 -518 321 -518 321 -474 c 0,102,103
 321 -438 321 -438 305 -394 c 0,104,105
 287 -342 287 -342 287 -304 c 0,106,107
 287 -241 287 -241 337 -232 c 0,108,109
 349 -230 349 -230 353 -230 c 0,110,111
 366 -230 366 -230 373 -240 c 0,112,113
 382 -254 382 -254 382 -277 c 0,114,115
 382 -305 382 -305 372 -375 c 0,116,117
 366 -420 366 -420 366 -443 c 0,118,119
 366 -468 366 -468 374.5 -475.5 c 128,-1,120
 383 -483 383 -483 407 -483 c 2,121,-1
 459 -482 l 2,122,123
 461 -482 461 -482 454 -499.5 c 128,-1,124
 447 -517 447 -517 435 -540 c 0,125,126
 422 -563 422 -563 414 -585.5 c 128,-1,127
 406 -608 406 -608 406 -620 c 0,128,52
 406 -636 406 -636 407.5 -641 c 128,-1,53
223 -525 m 256,130,131
 199 -525 199 -525 181.5 -508.5 c 128,-1,132
 164 -492 164 -492 164 -468 c 0,133,134
 164 -455 164 -455 168 -446 c 0,135,136
 175 -426 175 -426 188 -417 c 128,-1,137
 201 -408 201 -408 224 -408 c 256,138,139
 247 -408 247 -408 262.5 -426.5 c 128,-1,140
 278 -445 278 -445 278 -469 c 0,141,142
 278 -489 278 -489 266 -504 c 0,143,129
 247 -525 247 -525 223 -525 c 256,130,131
EndSplineSet
EndChar

StartChar: s
Encoding: 115 115 41
Width: 724
GlyphClass: 1
Flags: W
LayerCount: 2
Fore
SplineSet
128 -447 m 0,1,2
 119 -447 119 -447 109 -434 c 0,3,4
 100 -422 100 -422 100 -414 c 0,5,6
 100 -404 100 -404 117 -394 c 0,7,8
 133 -380 133 -380 154 -369 c 128,-1,9
 175 -358 175 -358 224 -338 c 2,10,-1
 277 -315 l 1,11,-1
 278 -283 l 2,12,13
 278 -231 278 -231 317 -208 c 0,14,15
 326 -202 326 -202 339.5 -200 c 128,-1,16
 353 -198 353 -198 387 -198 c 0,17,18
 446 -198 446 -198 467 -201 c 0,19,20
 481 -202 481 -202 492.5 -199.5 c 128,-1,21
 504 -197 504 -197 518 -190 c 0,22,23
 533 -183 533 -183 572.5 -157.5 c 128,-1,24
 612 -132 612 -132 642 -111 c 0,25,26
 648 -106 648 -106 659 -106 c 0,27,28
 673 -106 673 -106 682 -116.5 c 128,-1,29
 691 -127 691 -127 687 -142 c 0,30,31
 686 -151 686 -151 651 -171 c 128,-1,32
 616 -191 616 -191 565 -212 c 2,33,-1
 507 -235 l 1,34,-1
 507 -262 l 2,35,36
 507 -312 507 -312 466 -337 c 0,37,38
 454 -344 454 -344 428.5 -348 c 128,-1,39
 403 -352 403 -352 375 -352 c 0,40,41
 349 -352 349 -352 338 -350 c 0,42,43
 323 -347 323 -347 314 -347 c 256,44,45
 305 -347 305 -347 294.5 -351 c 128,-1,46
 284 -355 284 -355 269 -362 c 0,47,48
 225 -380 225 -380 150 -436 c 0,49,0
 134 -447 134 -447 128 -447 c 0,1,2
372 -308 m 0,51,52
 387 -308 387 -308 401.5 -304.5 c 128,-1,53
 416 -301 416 -301 425 -294 c 0,54,55
 441 -281 441 -281 441 -264 c 0,56,57
 441 -248 441 -248 427 -239.5 c 128,-1,58
 413 -231 413 -231 388 -231 c 0,59,60
 371 -231 371 -231 363.5 -234 c 128,-1,61
 356 -237 356 -237 346 -248 c 0,62,63
 331 -266 331 -266 331 -280 c 0,64,65
 331 -291 331 -291 338 -299 c 0,66,50
 347 -308 347 -308 372 -308 c 0,51,52
EndSplineSet
EndChar

StartChar: t
Encoding: 116 116 42
Width: 630
GlyphClass: 1
Flags: W
LayerCount: 2
Fore
SplineSet
189 -211.5 m 128,-1,1
 207 -208 207 -208 213 -203 c 0,2,3
 223 -193 223 -193 223 -181 c 0,4,5
 223 -173 223 -173 218.5 -165 c 128,-1,6
 214 -157 214 -157 206 -152 c 0,7,8
 191 -142 191 -142 151.5 -132.5 c 128,-1,9
 112 -123 112 -123 88 -123 c 0,10,11
 67 -123 67 -123 67 -130 c 0,12,13
 67 -135 67 -135 76.5 -140 c 128,-1,14
 86 -145 86 -145 101 -147 c 0,15,16
 136 -152 136 -152 149.5 -158.5 c 128,-1,17
 163 -165 163 -165 163 -176 c 0,18,19
 163 -183 163 -183 156.5 -188 c 128,-1,20
 150 -193 150 -193 142 -194 c 0,21,22
 133 -195 133 -195 128 -198.5 c 128,-1,23
 123 -202 123 -202 123 -205 c 0,24,25
 123 -209 123 -209 131 -212 c 128,-1,26
 139 -215 139 -215 154 -215 c 0,27,0
 171 -215 171 -215 189 -211.5 c 128,-1,1
348 -211.5 m 128,-1,29
 366 -208 366 -208 372 -203 c 0,30,31
 382 -193 382 -193 382 -181 c 0,32,33
 382 -173 382 -173 377.5 -165 c 128,-1,34
 373 -157 373 -157 365 -152 c 0,35,36
 350 -142 350 -142 310.5 -132.5 c 128,-1,37
 271 -123 271 -123 247 -123 c 0,38,39
 227 -123 227 -123 227 -130 c 0,40,41
 227 -135 227 -135 236 -139.5 c 128,-1,42
 245 -144 245 -144 261 -147 c 0,43,44
 295 -152 295 -152 309 -158.5 c 128,-1,45
 323 -165 323 -165 323 -176 c 0,46,47
 323 -183 323 -183 316.5 -188 c 128,-1,48
 310 -193 310 -193 301 -194 c 256,49,50
 292 -195 292 -195 287 -198.5 c 128,-1,51
 282 -202 282 -202 282 -205 c 0,52,53
 282 -209 282 -209 290 -212 c 128,-1,54
 298 -215 298 -215 313 -215 c 0,55,28
 330 -215 330 -215 348 -211.5 c 128,-1,29
404 -774 m 0,57,58
 420 -774 420 -774 424 -770 c 0,59,60
 427 -767 427 -767 434 -741 c 0,61,62
 439 -721 439 -721 439 -712 c 0,63,64
 439 -705 439 -705 438 -699 c 0,65,66
 435 -669 435 -669 423 -650.5 c 128,-1,67
 411 -632 411 -632 388 -620 c 0,68,69
 345 -597 345 -597 327 -577 c 0,70,71
 319 -569 319 -569 313.5 -556.5 c 128,-1,72
 308 -544 308 -544 301 -517 c 0,73,74
 295 -495 295 -495 295 -483 c 0,75,76
 295 -439 295 -439 335 -310 c 2,77,-1
 345 -279 l 1,78,-1
 340 -274 l 2,79,80
 337 -270 337 -270 325.5 -264 c 128,-1,81
 314 -258 314 -258 303 -254 c 0,82,83
 298 -252 298 -252 296.5 -252.5 c 128,-1,84
 295 -253 295 -253 292 -257 c 0,85,86
 287 -262 287 -262 284 -277 c 2,87,-1
 280 -292 l 1,88,-1
 274 -284 l 2,89,90
 256 -263 256 -263 241 -263 c 0,91,92
 234 -263 234 -263 221 -267 c 128,-1,93
 208 -271 208 -271 196 -278 c 0,94,95
 177 -286 177 -286 154 -308.5 c 128,-1,96
 131 -331 131 -331 118 -353 c 0,97,98
 100 -383 100 -383 100 -408 c 0,99,100
 100 -427 100 -427 110.5 -440.5 c 128,-1,101
 121 -454 121 -454 141 -460 c 0,102,103
 149 -462 149 -462 154 -462 c 0,104,105
 181 -462 181 -462 199.5 -453 c 128,-1,106
 218 -444 218 -444 244 -419 c 0,107,108
 255 -407 255 -407 260 -403.5 c 128,-1,109
 265 -400 265 -400 264 -405 c 0,110,111
 258 -441 258 -441 258 -475 c 0,112,113
 258 -500 258 -500 260 -508 c 0,114,115
 266 -538 266 -538 284.5 -567 c 128,-1,116
 303 -596 303 -596 339 -633 c 0,117,118
 382 -676 382 -676 382 -697 c 0,119,120
 382 -702 382 -702 373 -728 c 0,121,122
 369 -739 369 -739 366.5 -748 c 128,-1,123
 364 -757 364 -757 363 -761 c 0,124,125
 363 -766 363 -766 368.5 -768.5 c 128,-1,126
 374 -771 374 -771 387 -773 c 0,127,56
 393 -774 393 -774 404 -774 c 0,57,58
184 -426 m 0,129,130
 179 -426 179 -426 176 -422 c 0,131,132
 172 -417 172 -417 172 -406 c 0,133,134
 172 -383 172 -383 194 -346 c 0,135,136
 206 -326 206 -326 223 -310 c 128,-1,137
 240 -294 240 -294 247 -296 c 0,138,139
 249 -298 249 -298 249.5 -300 c 128,-1,140
 250 -302 250 -302 249 -306 c 0,141,142
 249 -315 249 -315 242 -339 c 0,143,144
 235 -370 235 -370 222 -393.5 c 128,-1,145
 209 -417 209 -417 196 -423 c 0,146,128
 188 -426 188 -426 184 -426 c 0,129,130
EndSplineSet
EndChar

StartChar: u
Encoding: 117 117 43
Width: 676
GlyphClass: 1
Flags: W
LayerCount: 2
Fore
SplineSet
523 -482.5 m 128,-1,1
 517 -501 517 -501 506 -519 c 0,2,3
 496 -535 496 -535 488 -550.5 c 128,-1,4
 480 -566 480 -566 480 -570 c 256,5,6
 480 -574 480 -574 469.5 -577 c 128,-1,7
 459 -580 459 -580 445 -580 c 0,8,9
 424 -580 424 -580 418.5 -576.5 c 128,-1,10
 413 -573 413 -573 417 -563 c 0,11,12
 421 -549 421 -549 442 -518 c 0,13,14
 459 -493 459 -493 459 -484 c 256,15,16
 459 -475 459 -475 442 -475 c 2,17,-1
 422 -477 l 2,18,19
 404 -479 404 -479 400 -479 c 0,20,21
 381 -479 381 -479 373.5 -469 c 128,-1,22
 366 -459 366 -459 366 -432 c 0,23,24
 366 -407 366 -407 372 -359 c 0,25,26
 378 -304 378 -304 378 -266 c 0,27,28
 378 -250 378 -250 377 -247 c 0,29,30
 374 -238 374 -238 364.5 -234 c 128,-1,31
 355 -230 355 -230 342 -230 c 256,32,33
 329 -230 329 -230 317 -235 c 128,-1,34
 305 -240 305 -240 300 -249 c 0,35,36
 291 -267 291 -267 291 -305 c 0,37,38
 291 -355 291 -355 305 -395 c 256,39,40
 319 -435 319 -435 319 -466 c 0,41,42
 319 -510 319 -510 293 -535 c 128,-1,43
 267 -560 267 -560 219 -560 c 0,44,45
 167 -560 167 -560 133.5 -529 c 128,-1,46
 100 -498 100 -498 100 -457 c 0,47,48
 100 -418 100 -418 130 -388 c 0,49,50
 148 -370 148 -370 161 -365 c 128,-1,51
 174 -360 174 -360 195 -362 c 0,52,53
 203 -363 203 -363 216 -363 c 0,54,55
 230 -363 230 -363 230 -360 c 2,56,-1
 225 -337 l 1,57,-1
 220 -312 l 2,58,59
 217 -296 217 -296 217 -280 c 0,60,61
 217 -230 217 -230 251 -200 c 128,-1,62
 285 -170 285 -170 344 -170 c 0,63,64
 398 -170 398 -170 422.5 -192.5 c 128,-1,65
 447 -215 447 -215 447 -266 c 0,66,67
 447 -290 447 -290 441 -323 c 0,68,69
 427 -401 427 -401 424 -410 c 0,70,71
 422 -420 422 -420 431 -422.5 c 128,-1,72
 440 -425 440 -425 471 -425 c 0,73,74
 499 -425 499 -425 509 -426.5 c 128,-1,75
 519 -428 519 -428 522.5 -433 c 128,-1,76
 526 -438 526 -438 528 -452 c 0,77,0
 529 -464 529 -464 523 -482.5 c 128,-1,1
274.5 -484.5 m 128,-1,79
 280 -473 280 -473 280 -463 c 0,80,81
 280 -442 280 -442 260 -421 c 128,-1,82
 240 -400 240 -400 220 -400 c 0,83,84
 201 -400 201 -400 180.5 -420.5 c 128,-1,85
 160 -441 160 -441 160 -460 c 0,86,87
 160 -480 160 -480 180.5 -500 c 128,-1,88
 201 -520 201 -520 222 -520 c 0,89,90
 231 -520 231 -520 243 -515 c 128,-1,91
 255 -510 255 -510 262 -503 c 256,92,78
 269 -496 269 -496 274.5 -484.5 c 128,-1,79
EndSplineSet
EndChar

StartChar: v
Encoding: 118 118 44
Width: 593
GlyphClass: 1
Flags: W
LayerCount: 2
Fore
SplineSet
331 235 m 0,1,2
 339 235 339 235 346 240 c 0,3,4
 361 251 361 251 366.5 264.5 c 128,-1,5
 372 278 372 278 373 311 c 0,6,7
 376 360 376 360 387 387 c 0,8,9
 393 399 393 399 393 408 c 0,10,11
 393 415 393 415 390 418 c 2,12,-1
 387 423 l 1,13,-1
 331 421 l 2,14,15
 265 419 265 419 215 419 c 2,16,-1
 154 420 l 1,17,-1
 144 421 l 2,18,19
 138 421 138 421 134 417 c 0,20,21
 124 411 124 411 121 391 c 2,22,-1
 121 385 l 2,23,24
 121 379 121 379 125 375 c 0,25,26
 133 367 133 367 152 367 c 0,27,28
 167 367 167 367 195 370 c 0,29,30
 213 372 213 372 256 372 c 0,31,32
 280 372 280 372 290 371.5 c 128,-1,33
 300 371 300 371 300 369 c 2,34,-1
 295 309 l 1,35,-1
 291 253 l 1,36,-1
 296 248 l 2,37,38
 302 242 302 242 313 239 c 0,39,0
 324 235 324 235 331 235 c 0,1,2
226.5 -249 m 128,-1,41
 229 -248 229 -248 231 -247 c 0,42,43
 240 -244 240 -244 249 -244 c 2,44,-1
 261 -243 l 1,45,-1
 300 -128 l 2,46,47
 320 -68 320 -68 340 -14 c 0,48,49
 341 -14 341 -14 363 -55 c 0,50,51
 385 -98 385 -98 408 -159 c 0,52,53
 430 -217 430 -217 434 -226 c 0,54,55
 436 -229 436 -229 441 -229 c 0,56,57
 449 -229 449 -229 458 -223 c 0,58,59
 467 -218 467 -218 470 -212.5 c 128,-1,60
 473 -207 473 -207 473 -197 c 0,61,62
 473 -182 473 -182 469 -165.5 c 128,-1,63
 465 -149 465 -149 455 -118 c 0,64,65
 447 -92 447 -92 430.5 -53 c 128,-1,66
 414 -14 414 -14 407 0 c 0,67,68
 399 12 399 12 389 35 c 0,69,70
 382 51 382 51 380.5 56.5 c 128,-1,71
 379 62 379 62 379 75 c 0,72,73
 379 85 379 85 382 94 c 128,-1,74
 385 103 385 103 394 124 c 0,75,76
 401 141 401 141 408 152 c 128,-1,77
 415 163 415 163 427 179 c 2,78,-1
 449 208 l 1,79,-1
 446 215 l 1,80,-1
 444 222 l 1,81,-1
 430 223 l 2,82,83
 415 223 415 223 413 222 c 0,84,85
 402 216 402 216 378 168 c 2,86,-1
 358 126 l 2,87,88
 356 120 356 120 354 117.5 c 128,-1,89
 352 115 352 115 349 115 c 0,90,91
 344 115 344 115 338 120.5 c 128,-1,92
 332 126 332 126 307 155 c 2,93,-1
 274 196 l 1,94,-1
 267 195 l 2,95,96
 258 194 258 194 248 190 c 128,-1,97
 238 186 238 186 232 179 c 0,98,99
 225 172 225 172 222 165.5 c 128,-1,100
 219 159 219 159 219 148 c 0,101,102
 219 138 219 138 221 134.5 c 128,-1,103
 223 131 223 131 229 130 c 0,104,105
 244 127 244 127 263 108 c 0,106,107
 271 99 271 99 287 75.5 c 128,-1,108
 303 52 303 52 311 37 c 2,109,-1
 318 24 l 1,110,-1
 270 -107 l 2,111,112
 221 -236 221 -236 221 -242 c 2,113,-1
 222 -248 l 2,114,40
 224 -250 224 -250 226.5 -249 c 128,-1,41
EndSplineSet
EndChar

StartChar: w
Encoding: 119 119 45
Width: 609
GlyphClass: 1
Flags: W
LayerCount: 2
Fore
SplineSet
386 -503 m 0,1,2
 396 -503 396 -503 399 -500 c 0,3,4
 405 -494 405 -494 405.5 -491.5 c 128,-1,5
 406 -489 406 -489 403 -485 c 0,6,7
 399 -479 399 -479 391.5 -473 c 128,-1,8
 384 -467 384 -467 376 -464 c 0,9,10
 369 -460 369 -460 364.5 -453.5 c 128,-1,11
 360 -447 360 -447 357 -434 c 0,12,13
 355 -423 355 -423 352.5 -389 c 128,-1,14
 350 -355 350 -355 351 -353 c 0,15,16
 351 -351 351 -351 398 -355 c 2,17,-1
 443 -357 l 1,18,-1
 447 -350 l 2,19,20
 452 -345 452 -345 452 -341 c 256,21,22
 452 -337 452 -337 449 -332 c 2,23,-1
 443 -325 l 1,24,-1
 376 -320 l 1,25,-1
 309 -313 l 1,26,-1
 304 -316 l 2,27,28
 300 -320 300 -320 299.5 -325 c 128,-1,29
 299 -330 299 -330 299 -341 c 256,30,31
 299 -352 299 -352 298.5 -356 c 128,-1,32
 298 -360 298 -360 298 -361 c 1,33,34
 296 -359 296 -359 292 -351 c 128,-1,35
 288 -343 288 -343 284 -332 c 0,36,37
 248 -248 248 -248 234 -222 c 0,38,39
 224 -207 224 -207 200 -186 c 128,-1,40
 176 -165 176 -165 156 -155 c 256,41,42
 136 -145 136 -145 117 -145 c 0,43,44
 77 -145 77 -145 77 -162 c 2,45,-1
 77 -170 l 1,46,-1
 98 -178 l 2,47,48
 123 -186 123 -186 136 -194 c 128,-1,49
 149 -202 149 -202 161 -217 c 0,50,51
 175 -236 175 -236 185 -263 c 128,-1,52
 195 -290 195 -290 192 -301 c 0,53,54
 187 -327 187 -327 164 -371 c 128,-1,55
 141 -415 141 -415 112 -453 c 0,56,57
 96 -473 96 -473 102 -478 c 0,58,59
 109 -480 109 -480 122.5 -482.5 c 128,-1,60
 136 -485 136 -485 146 -485 c 2,61,-1
 158 -485 l 1,62,-1
 168 -475 l 1,63,64
 190 -447 190 -447 209 -409 c 2,65,-1
 224 -381 l 1,66,-1
 230 -393 l 2,67,68
 249 -424 249 -424 268 -445 c 0,69,70
 289 -468 289 -468 316.5 -483 c 128,-1,71
 344 -498 344 -498 373 -502 c 0,72,0
 378 -503 378 -503 386 -503 c 0,1,2
EndSplineSet
EndChar

StartChar: x
Encoding: 120 120 46
Width: 739
GlyphClass: 1
Flags: W
LayerCount: 2
Fore
SplineSet
517 275 m 128,-1,1
 522 289 522 289 524 321 c 0,2,3
 526 352 526 352 529.5 368.5 c 128,-1,4
 533 385 533 385 541 397 c 0,5,6
 545 402 545 402 545 408 c 0,7,8
 545 415 545 415 541 420 c 2,9,-1
 537 425 l 1,10,-1
 361 423 l 1,11,-1
 362 447 l 2,12,13
 365 495 365 495 376 518 c 0,14,15
 381 529 381 529 381 539 c 0,16,17
 381 546 381 546 379 549 c 2,18,-1
 375 553 l 1,19,-1
 138 552 l 1,20,-1
 130 545 l 2,21,22
 124 539 124 539 120 524 c 0,23,24
 119 513 119 513 121 509 c 128,-1,25
 123 505 123 505 133 503.5 c 128,-1,26
 143 502 143 502 170 502 c 2,27,-1
 211 502 l 1,28,-1
 291 504 l 1,29,-1
 289 493 l 1,30,-1
 285 433 l 1,31,-1
 283 393 l 2,32,33
 283 387 283 387 285 381 c 0,34,35
 287 376 287 376 293 374.5 c 128,-1,36
 299 373 299 373 313 373 c 0,37,38
 335 373 335 373 351 374 c 2,39,-1
 425 376 l 1,40,-1
 453 376 l 1,41,-1
 453 371 l 2,42,43
 453 367 453 367 451 350 c 128,-1,44
 449 333 449 333 448 314 c 0,45,46
 445 287 445 287 445 275 c 0,47,48
 445 262 445 262 449 258 c 128,-1,49
 453 254 453 254 467 250 c 0,50,51
 476 245 476 245 484 245 c 256,52,53
 492 245 492 245 499 252 c 0,54,0
 512 261 512 261 517 275 c 128,-1,1
372.5 -249 m 128,-1,56
 375 -248 375 -248 377 -247 c 0,57,58
 386 -244 386 -244 395 -244 c 2,59,-1
 407 -243 l 1,60,-1
 446 -128 l 2,61,62
 466 -68 466 -68 486 -14 c 0,63,64
 487 -14 487 -14 509 -55 c 0,65,66
 531 -98 531 -98 554 -159 c 0,67,68
 576 -217 576 -217 580 -226 c 0,69,70
 582 -229 582 -229 587 -229 c 0,71,72
 595 -229 595 -229 604 -223 c 0,73,74
 613 -218 613 -218 616 -212.5 c 128,-1,75
 619 -207 619 -207 619 -197 c 0,76,77
 619 -182 619 -182 615 -165.5 c 128,-1,78
 611 -149 611 -149 601 -118 c 0,79,80
 593 -92 593 -92 576.5 -53 c 128,-1,81
 560 -14 560 -14 553 0 c 0,82,83
 545 12 545 12 535 35 c 0,84,85
 528 51 528 51 526.5 56.5 c 128,-1,86
 525 62 525 62 525 75 c 0,87,88
 525 85 525 85 528 94 c 128,-1,89
 531 103 531 103 540 124 c 0,90,91
 547 141 547 141 554 152 c 128,-1,92
 561 163 561 163 573 179 c 2,93,-1
 595 208 l 1,94,-1
 592 215 l 1,95,-1
 590 222 l 1,96,-1
 576 223 l 2,97,98
 561 223 561 223 559 222 c 0,99,100
 548 216 548 216 524 168 c 2,101,-1
 504 126 l 2,102,103
 502 120 502 120 500 117.5 c 128,-1,104
 498 115 498 115 495 115 c 0,105,106
 490 115 490 115 484 120.5 c 128,-1,107
 478 126 478 126 453 155 c 2,108,-1
 420 196 l 1,109,-1
 413 195 l 2,110,111
 404 194 404 194 394 190 c 128,-1,112
 384 186 384 186 378 179 c 0,113,114
 371 172 371 172 368 165.5 c 128,-1,115
 365 159 365 159 365 148 c 0,116,117
 365 138 365 138 367 134.5 c 128,-1,118
 369 131 369 131 375 130 c 0,119,120
 390 127 390 127 409 108 c 0,121,122
 417 99 417 99 433 75.5 c 128,-1,123
 449 52 449 52 457 37 c 2,124,-1
 464 24 l 1,125,-1
 416 -107 l 2,126,127
 367 -236 367 -236 367 -242 c 2,128,-1
 368 -248 l 2,129,55
 370 -250 370 -250 372.5 -249 c 128,-1,56
EndSplineSet
EndChar

StartChar: y
Encoding: 121 121 47
Width: 756
GlyphClass: 1
Flags: W
LayerCount: 2
Fore
SplineSet
474 -432 m 0,1,2
 481 -432 481 -432 487 -422 c 128,-1,3
 493 -412 493 -412 504 -389 c 0,4,5
 548 -300 548 -300 575 -263 c 0,6,7
 587 -248 587 -248 591 -248 c 0,8,9
 596 -248 596 -248 596 -262 c 0,10,11
 596 -271 596 -271 590.5 -275.5 c 128,-1,12
 585 -280 585 -280 585 -292 c 0,13,14
 585 -317 585 -317 609 -317 c 0,15,16
 629 -317 629 -317 640 -301 c 0,17,18
 648 -291 648 -291 652 -270.5 c 128,-1,19
 656 -250 656 -250 656 -228 c 0,20,21
 656 -188 656 -188 645 -177 c 256,22,23
 634 -166 634 -166 611 -166 c 0,24,25
 603 -166 603 -166 591 -170 c 0,26,27
 579 -175 579 -175 572 -182 c 128,-1,28
 565 -189 565 -189 552 -211 c 2,29,-1
 493 -303 l 2,30,31
 491 -305 491 -305 491 -290 c 2,32,-1
 492 -237 l 2,33,34
 492 -203 492 -203 482 -187.5 c 128,-1,35
 472 -172 472 -172 451 -172 c 0,36,37
 445 -172 445 -172 440.5 -173.5 c 128,-1,38
 436 -175 436 -175 432 -178 c 0,39,40
 422 -185 422 -185 403.5 -206.5 c 128,-1,41
 385 -228 385 -228 349 -274 c 0,42,43
 341 -284 341 -284 333.5 -295.5 c 128,-1,44
 326 -307 326 -307 322 -307 c 0,45,46
 315 -307 315 -307 301 -286 c 0,47,48
 300 -285 300 -285 302 -262 c 0,49,50
 302 -254 302 -254 303 -244 c 128,-1,51
 304 -234 304 -234 304 -222 c 0,52,53
 305 -188 305 -188 307.5 -164.5 c 128,-1,54
 310 -141 310 -141 310 -133 c 0,55,56
 310 -127 310 -127 307.5 -125 c 128,-1,57
 305 -123 305 -123 299 -123 c 0,58,59
 273 -123 273 -123 265.5 -125 c 128,-1,60
 258 -127 258 -127 253 -135 c 0,61,62
 251 -139 251 -139 250.5 -154.5 c 128,-1,63
 250 -170 250 -170 250 -206 c 0,64,65
 250 -258 250 -258 248.5 -273.5 c 128,-1,66
 247 -289 247 -289 241 -301 c 0,67,68
 234 -314 234 -314 219 -324.5 c 128,-1,69
 204 -335 204 -335 192 -335 c 0,70,71
 167 -335 167 -335 157.5 -322.5 c 128,-1,72
 148 -310 148 -310 148 -286 c 0,73,74
 148 -270 148 -270 152 -236 c 0,75,76
 156 -199 156 -199 164 -184 c 128,-1,77
 172 -169 172 -169 186 -169 c 0,78,79
 195 -169 195 -169 203.5 -176 c 128,-1,80
 212 -183 212 -183 215 -193 c 0,81,82
 224 -225 224 -225 230 -225 c 0,83,84
 238 -225 238 -225 238 -189 c 0,85,86
 238 -154 238 -154 229.5 -139 c 128,-1,87
 221 -124 221 -124 199 -124 c 0,88,89
 151 -125 151 -125 125.5 -158.5 c 128,-1,90
 100 -192 100 -192 100 -257 c 0,91,92
 100 -309 100 -309 121 -341 c 128,-1,93
 142 -373 142 -373 187 -373 c 0,94,95
 210 -373 210 -373 225.5 -366.5 c 128,-1,96
 241 -360 241 -360 253 -346 c 0,97,98
 264 -335 264 -335 264 -335 c 1,99,100
 277 -351 277 -351 285 -359 c 128,-1,101
 293 -367 293 -367 299 -367 c 0,102,103
 312 -367 312 -367 331.5 -352.5 c 128,-1,104
 351 -338 351 -338 370 -313 c 0,105,106
 383 -296 383 -296 409 -256 c 2,107,-1
 426 -231 l 2,108,109
 437 -217 437 -217 437 -217 c 2,110,111
 438 -217 438 -217 438.5 -224.5 c 128,-1,112
 439 -232 439 -232 440 -241 c 0,113,114
 444 -326 444 -326 449.5 -367 c 128,-1,115
 455 -408 455 -408 465 -425 c 0,116,0
 469 -432 469 -432 474 -432 c 0,1,2
EndSplineSet
EndChar

StartChar: z
Encoding: 122 122 48
Width: 908
GlyphClass: 1
Flags: W
LayerCount: 2
Fore
SplineSet
714 408 m 0,1,2
 714 402 714 402 710 397 c 0,3,4
 702 385 702 385 698.5 368.5 c 128,-1,5
 695 352 695 352 693 321 c 0,6,7
 691 289 691 289 686 275 c 128,-1,8
 681 261 681 261 668 252 c 0,9,10
 661 245 661 245 653 245 c 256,11,12
 645 245 645 245 636 250 c 0,13,14
 622 254 622 254 618 258 c 128,-1,15
 614 262 614 262 614 275 c 0,16,17
 614 287 614 287 617 314 c 0,18,19
 618 333 618 333 620 350 c 128,-1,20
 622 367 622 367 622 371 c 2,21,-1
 622 376 l 1,22,-1
 594 376 l 1,23,-1
 520 374 l 2,24,25
 504 373 504 373 482 373 c 0,26,27
 468 373 468 373 462 374.5 c 128,-1,28
 456 376 456 376 454 381 c 0,29,30
 452 387 452 387 452 393 c 2,31,-1
 454 433 l 1,32,-1
 458 493 l 1,33,-1
 460 504 l 1,34,-1
 380 502 l 1,35,-1
 339 502 l 2,36,37
 312 502 312 502 302 503.5 c 128,-1,38
 292 505 292 505 290 509 c 128,-1,39
 288 513 288 513 289 524 c 2,40,-1
 290 529 l 1,41,-1
 294 579 l 1,42,-1
 299 639 l 2,43,44
 299 641 299 641 289 641.5 c 128,-1,45
 279 642 279 642 255 642 c 0,46,47
 212 642 212 642 194 640 c 0,48,49
 166 637 166 637 151 637 c 0,50,51
 132 637 132 637 124 645 c 0,52,53
 120 649 120 649 120 655 c 0,54,55
 120 678 120 678 133 687 c 0,56,57
 136 690 136 690 140.5 690.5 c 128,-1,58
 145 691 145 691 153 690 c 2,59,-1
 214 689 l 2,60,61
 264 689 264 689 330 691 c 2,62,-1
 386 693 l 1,63,-1
 389 688 l 2,64,65
 392 684 392 684 392 678 c 0,66,67
 392 669 392 669 386 657 c 0,68,69
 375 630 375 630 372 581 c 2,70,-1
 370 553 l 1,71,-1
 544 553 l 1,72,-1
 548 549 l 2,73,74
 550 546 550 546 550 539 c 0,75,76
 550 529 550 529 545 518 c 0,77,78
 534 495 534 495 531 447 c 2,79,-1
 530 423 l 1,80,-1
 706 425 l 1,81,-1
 710 420 l 2,82,0
 714 415 714 415 714 408 c 0,1,2
541.5 -249 m 128,-1,84
 544 -248 544 -248 546 -247 c 0,85,86
 555 -244 555 -244 564 -244 c 2,87,-1
 576 -243 l 1,88,-1
 615 -128 l 2,89,90
 635 -68 635 -68 655 -14 c 0,91,92
 656 -14 656 -14 678 -55 c 0,93,94
 700 -98 700 -98 723 -159 c 0,95,96
 745 -217 745 -217 749 -226 c 0,97,98
 751 -229 751 -229 756 -229 c 0,99,100
 764 -229 764 -229 773 -223 c 0,101,102
 782 -218 782 -218 785 -212.5 c 128,-1,103
 788 -207 788 -207 788 -197 c 0,104,105
 788 -182 788 -182 784 -165.5 c 128,-1,106
 780 -149 780 -149 770 -118 c 0,107,108
 762 -92 762 -92 745.5 -53 c 128,-1,109
 729 -14 729 -14 722 0 c 0,110,111
 714 12 714 12 704 35 c 0,112,113
 697 51 697 51 695.5 56.5 c 128,-1,114
 694 62 694 62 694 75 c 0,115,116
 694 85 694 85 697 94 c 128,-1,117
 700 103 700 103 709 124 c 0,118,119
 716 141 716 141 723 152 c 128,-1,120
 730 163 730 163 742 179 c 2,121,-1
 764 208 l 1,122,-1
 761 215 l 1,123,-1
 759 222 l 1,124,-1
 745 223 l 2,125,126
 730 223 730 223 728 222 c 0,127,128
 717 216 717 216 693 168 c 2,129,-1
 673 126 l 2,130,131
 671 120 671 120 669 117.5 c 128,-1,132
 667 115 667 115 664 115 c 0,133,134
 659 115 659 115 653 120.5 c 128,-1,135
 647 126 647 126 622 155 c 2,136,-1
 589 196 l 1,137,-1
 582 195 l 2,138,139
 573 194 573 194 563 190 c 128,-1,140
 553 186 553 186 547 179 c 0,141,142
 540 172 540 172 537 165.5 c 128,-1,143
 534 159 534 159 534 148 c 0,144,145
 534 138 534 138 536 134.5 c 128,-1,146
 538 131 538 131 544 130 c 0,147,148
 559 127 559 127 578 108 c 0,149,150
 586 99 586 99 602 75.5 c 128,-1,151
 618 52 618 52 626 37 c 2,152,-1
 633 24 l 1,153,-1
 585 -107 l 2,154,155
 536 -236 536 -236 536 -242 c 2,156,-1
 537 -248 l 2,157,83
 539 -250 539 -250 541.5 -249 c 128,-1,84
EndSplineSet
EndChar

StartChar: pi
Encoding: 960 960 49
Width: 1254
GlyphClass: 1
Flags: W
LayerCount: 2
Fore
SplineSet
1154 412 m 0,1,2
 1154 405 1154 405 1149.5 401.5 c 128,-1,3
 1145 398 1145 398 1139 402 c 0,4,5
 1132 404 1132 404 1119 407.5 c 128,-1,6
 1106 411 1106 411 1093 414 c 0,7,8
 1043 423 1043 423 975 427 c 2,9,-1
 865 428 l 2,10,11
 671 428 671 428 584 425 c 0,12,13
 497 424 497 424 406 435 c 0,14,15
 342 444 342 444 304.5 461 c 128,-1,16
 267 478 267 478 262 501 c 1,17,-1
 262 505 l 2,18,19
 262 513 262 513 268 516.5 c 128,-1,20
 274 520 274 520 281 517 c 0,21,22
 295 510 295 510 325.5 505.5 c 128,-1,23
 356 501 356 501 408 495 c 0,24,25
 434 492 434 492 506 492 c 0,26,27
 589 492 589 492 694 495 c 0,28,29
 828 497 828 497 884 497 c 0,30,31
 949 497 949 497 971 495 c 0,32,33
 1067 483 1067 483 1142 433 c 0,34,0
 1154 424 1154 424 1154 412 c 0,1,2
1137 265 m 256,36,37
 1137 260 1137 260 1131 257 c 0,38,39
 1128 255 1128 255 1114 255 c 0,40,41
 1093 255 1093 255 1075 259 c 0,42,43
 1062 263 1062 263 1054 274 c 128,-1,44
 1046 285 1046 285 1038 309 c 0,45,46
 1027 343 1027 343 1023 351.5 c 128,-1,47
 1019 360 1019 360 1012 362 c 0,48,49
 1003 366 1003 366 1003 370 c 0,50,51
 1003 379 1003 379 1033 379 c 0,52,53
 1059 379 1059 379 1071.5 375.5 c 128,-1,54
 1084 372 1084 372 1091 361 c 128,-1,55
 1098 350 1098 350 1105 324 c 0,56,57
 1113 294 1113 294 1118 284.5 c 128,-1,58
 1123 275 1123 275 1130 273 c 0,59,35
 1137 270 1137 270 1137 265 c 256,36,37
1022 265 m 256,61,62
 1022 260 1022 260 1016 257 c 0,63,64
 1013 255 1013 255 999 255 c 0,65,66
 979 255 979 255 961 259 c 0,67,68
 948 263 948 263 939.5 274.5 c 128,-1,69
 931 286 931 286 924 309 c 0,70,71
 914 341 914 341 909.5 350.5 c 128,-1,72
 905 360 905 360 897 362 c 0,73,74
 892 364 892 364 890 366.5 c 128,-1,75
 888 369 888 369 889 371 c 0,76,77
 895 379 895 379 921 379 c 0,78,79
 945 379 945 379 957 375.5 c 128,-1,80
 969 372 969 372 976.5 360.5 c 128,-1,81
 984 349 984 349 991 324 c 0,82,83
 1000 294 1000 294 1004.5 284.5 c 128,-1,84
 1009 275 1009 275 1015 273 c 0,85,60
 1022 270 1022 270 1022 265 c 256,61,62
790 264 m 0,87,88
 790 257 790 257 786.5 253 c 128,-1,89
 783 249 783 249 777 253 c 0,90,91
 769 260 769 260 739 266 c 0,92,93
 699 276 699 276 642 279 c 0,94,95
 634 280 634 280 590 280 c 0,96,97
 505 280 505 280 401 278 c 2,98,-1
 370 277 l 2,99,100
 313 277 313 277 253 288 c 0,101,102
 200 298 200 298 169.5 315.5 c 128,-1,103
 139 333 139 333 135 356 c 1,104,-1
 135 360 l 2,105,106
 135 368 135 368 140 372 c 128,-1,107
 145 376 145 376 151 372 c 0,108,109
 162 366 162 366 192.5 360 c 128,-1,110
 223 354 223 354 255 349 c 0,111,112
 283 347 283 347 332 347 c 0,113,114
 372 347 372 347 490 349 c 0,115,116
 560 352 560 352 590 352 c 0,117,118
 622 352 622 352 638 349 c 0,119,120
 717 338 717 338 780 285 c 0,121,86
 790 276 790 276 790 264 c 0,87,88
417 174 m 0,123,124
 417 161 417 161 413 152 c 0,125,126
 404 134 404 134 359 134 c 0,127,128
 327 134 327 134 273 147 c 0,129,130
 225 159 225 159 220 159 c 0,131,132
 217 159 217 159 219.5 148.5 c 128,-1,133
 222 138 222 138 228 123 c 0,134,135
 241 82 241 82 241 36 c 0,136,137
 241 -2 241 -2 232 -20 c 0,138,139
 224 -34 224 -34 198.5 -44 c 128,-1,140
 173 -54 173 -54 149 -54 c 0,141,142
 128 -54 128 -54 117 -46 c 0,143,144
 104 -37 104 -37 115 -33 c 256,145,146
 126 -29 126 -29 147 -12 c 0,147,148
 162 0 162 0 166 12 c 128,-1,149
 170 24 170 24 170 57 c 0,150,151
 170 97 170 97 159 126 c 128,-1,152
 148 155 148 155 121 189 c 0,153,154
 99 214 99 214 99 229 c 0,155,156
 99 241 99 241 115 241 c 0,157,158
 134 241 134 241 160 226 c 0,159,160
 188 211 188 211 242 194.5 c 128,-1,161
 296 178 296 178 317 178 c 0,162,163
 330 178 330 178 341 203 c 0,164,165
 353 235 353 235 373 235 c 0,166,167
 384 235 384 235 394 225 c 0,168,122
 417 204 417 204 417 174 c 0,123,124
580.5 234.5 m 128,-1,170
 588 233 588 233 581 228 c 0,171,172
 576 226 576 226 569.5 216.5 c 128,-1,173
 563 207 563 207 559 198 c 0,174,175
 554 185 554 185 550.5 181 c 128,-1,176
 547 177 547 177 539 176 c 128,-1,177
 531 175 531 175 509 175 c 0,178,179
 468 175 468 175 468 181 c 0,180,181
 468 183 468 183 471 186.5 c 128,-1,182
 474 190 474 190 478 191 c 256,183,184
 482 192 482 192 487 199 c 128,-1,185
 492 206 492 206 495 215 c 0,186,187
 499 226 499 226 503 230 c 128,-1,188
 507 234 507 234 515 235 c 128,-1,189
 523 236 523 236 548 236 c 256,190,169
 573 236 573 236 580.5 234.5 c 128,-1,170
702.5 234.5 m 128,-1,192
 710 233 710 233 703 228 c 0,193,194
 698 226 698 226 691.5 217 c 128,-1,195
 685 208 685 208 681 198 c 0,196,197
 675 185 675 185 671.5 181 c 128,-1,198
 668 177 668 177 660.5 176 c 128,-1,199
 653 175 653 175 631 175 c 0,200,201
 590 175 590 175 590 181 c 0,202,203
 590 183 590 183 593 186.5 c 128,-1,204
 596 190 596 190 600 191 c 256,205,206
 604 192 604 192 609 199 c 128,-1,207
 614 206 614 206 617 215 c 0,208,209
 621 227 621 227 624.5 230.5 c 128,-1,210
 628 234 628 234 636.5 235 c 128,-1,211
 645 236 645 236 669 236 c 0,212,191
 695 236 695 236 702.5 234.5 c 128,-1,192
EndSplineSet
EndChar

StartChar: one
Encoding: 49 49 50
Width: 556
GlyphClass: 1
Flags: W
LayerCount: 2
Fore
SplineSet
377 -501 m 0,1,2
 380 -501 380 -501 392 -496 c 0,3,4
 400 -492 400 -492 400 -485 c 0,5,6
 400 -476 400 -476 395 -465 c 0,7,8
 385 -441 385 -441 380.5 -408.5 c 128,-1,9
 376 -376 376 -376 378 -344 c 2,10,-1
 379 -322 l 1,11,-1
 413 -322 l 2,12,13
 431 -322 431 -322 439.5 -321 c 128,-1,14
 448 -320 448 -320 452 -316 c 0,15,16
 457 -311 457 -311 455 -303 c 0,17,18
 455 -301 455 -301 454.5 -295 c 128,-1,19
 454 -289 454 -289 430 -288 c 128,-1,20
 406 -287 406 -287 365 -287 c 2,21,-1
 282 -287 l 1,22,-1
 115 -287 l 1,23,-1
 110 -292 l 2,24,25
 100 -302 100 -302 100 -319 c 0,26,27
 100 -330 100 -330 105 -333.5 c 128,-1,28
 110 -337 110 -337 125 -338 c 2,29,-1
 131 -338 l 2,30,31
 139 -338 139 -338 141.5 -335.5 c 128,-1,32
 144 -333 144 -333 144 -326 c 2,33,-1
 144 -321 l 1,34,-1
 180 -321 l 2,35,36
 197 -321 197 -321 207 -322 c 128,-1,37
 217 -323 217 -323 219 -326.5 c 128,-1,38
 221 -330 221 -330 221 -339 c 0,39,40
 221 -350 221 -350 215.5 -382 c 128,-1,41
 210 -414 210 -414 203 -445 c 0,42,43
 195 -474 195 -474 195 -482 c 0,44,45
 197 -484 197 -484 207 -484 c 0,46,47
 235 -484 235 -484 244 -481 c 128,-1,48
 253 -478 253 -478 260 -465 c 0,49,50
 265 -454 265 -454 267.5 -440 c 128,-1,51
 270 -426 270 -426 271 -392 c 0,52,53
 271 -350 271 -350 273 -336 c 2,54,-1
 274 -321 l 1,55,-1
 308 -321 l 1,56,-1
 307 -361 l 2,57,58
 305 -434 305 -434 316 -455 c 0,59,60
 330 -486 330 -486 367 -499 c 0,61,0
 375 -501 375 -501 377 -501 c 0,1,2
EndSplineSet
EndChar

StartChar: two
Encoding: 50 50 51
Width: 454
GlyphClass: 1
Flags: W
LayerCount: 2
Fore
SplineSet
214 -600 m 0,1,2
 224 -600 224 -600 229.5 -596 c 128,-1,3
 235 -592 235 -592 236 -591 c 0,4,5
 254 -577 254 -577 268.5 -560.5 c 128,-1,6
 283 -544 283 -544 288 -530 c 0,7,8
 292 -519 292 -519 292 -499 c 0,9,10
 292 -460 292 -460 259 -443 c 0,11,12
 251 -439 251 -439 243 -439 c 0,13,14
 230 -439 230 -439 201 -455 c 0,15,16
 183 -466 183 -466 168.5 -482.5 c 128,-1,17
 154 -499 154 -499 154 -509 c 0,18,19
 154 -513 154 -513 155.5 -513.5 c 128,-1,20
 157 -514 157 -514 162 -514 c 0,21,22
 166 -514 166 -514 171 -510.5 c 128,-1,23
 176 -507 176 -507 186 -499 c 0,24,25
 203 -485 203 -485 214.5 -477 c 128,-1,26
 226 -469 226 -469 232 -469 c 0,27,28
 239 -469 239 -469 238 -475 c 0,29,30
 228 -521 228 -521 222 -534 c 0,31,32
 216 -545 216 -545 206.5 -552.5 c 128,-1,33
 197 -560 197 -560 189 -560 c 0,34,35
 174 -560 174 -560 160.5 -548 c 128,-1,36
 147 -536 147 -536 147 -520 c 0,37,38
 147 -503 147 -503 151.5 -482 c 128,-1,39
 156 -461 156 -461 161 -454 c 0,40,41
 165 -449 165 -449 169 -446.5 c 128,-1,42
 173 -444 173 -444 182 -441 c 0,43,44
 256 -416 256 -416 299 -387 c 0,45,46
 322 -371 322 -371 338 -352.5 c 128,-1,47
 354 -334 354 -334 354 -322 c 0,48,49
 354 -305 354 -305 344 -287 c 0,50,51
 331 -264 331 -264 318.5 -255.5 c 128,-1,52
 306 -247 306 -247 284 -245 c 0,53,54
 271 -244 271 -244 261.5 -246.5 c 128,-1,55
 252 -249 252 -249 236 -257 c 0,56,57
 165 -290 165 -290 116 -416 c 0,58,59
 100 -458 100 -458 100 -489 c 0,60,61
 100 -532 100 -532 129 -564 c 0,62,63
 142 -579 142 -579 156.5 -586.5 c 128,-1,64
 171 -594 171 -594 197 -598 c 0,65,0
 211 -600 211 -600 214 -600 c 0,1,2
193 -397 m 0,67,68
 193 -394 193 -394 217.5 -358.5 c 128,-1,69
 242 -323 242 -323 256 -305 c 0,70,71
 263 -296 263 -296 266.5 -293 c 128,-1,72
 270 -290 270 -290 275 -291 c 0,73,74
 310 -297 310 -297 307 -316 c 0,75,76
 299 -364 299 -364 214 -394 c 0,77,66
 193 -402 193 -402 193 -397 c 0,67,68
EndSplineSet
EndChar

StartChar: three
Encoding: 51 51 52
Width: 518
GlyphClass: 1
Flags: W
LayerCount: 2
Fore
SplineSet
418 -332 m 0,1,2
 418 -345 418 -345 414 -354 c 0,3,4
 405 -372 405 -372 360 -372 c 0,5,6
 328 -372 328 -372 274 -359 c 0,7,8
 226 -347 226 -347 221 -347 c 0,9,10
 218 -347 218 -347 220.5 -357.5 c 128,-1,11
 223 -368 223 -368 229 -383 c 0,12,13
 242 -424 242 -424 242 -470 c 0,14,15
 242 -508 242 -508 233 -526 c 0,16,17
 225 -540 225 -540 199.5 -550 c 128,-1,18
 174 -560 174 -560 150 -560 c 0,19,20
 129 -560 129 -560 118 -552 c 0,21,22
 105 -543 105 -543 116 -539 c 256,23,24
 127 -535 127 -535 148 -518 c 0,25,26
 163 -506 163 -506 167 -494 c 128,-1,27
 171 -482 171 -482 171 -449 c 0,28,29
 171 -409 171 -409 160 -380 c 128,-1,30
 149 -351 149 -351 122 -317 c 0,31,32
 100 -292 100 -292 100 -277 c 0,33,34
 100 -265 100 -265 116 -265 c 0,35,36
 135 -265 135 -265 161 -280 c 0,37,38
 189 -295 189 -295 243 -311.5 c 128,-1,39
 297 -328 297 -328 318 -328 c 0,40,41
 331 -328 331 -328 342 -303 c 0,42,43
 354 -271 354 -271 374 -271 c 0,44,45
 385 -271 385 -271 395 -281 c 0,46,0
 418 -302 418 -302 418 -332 c 0,1,2
EndSplineSet
EndChar

StartChar: four
Encoding: 52 52 53
Width: 487
GlyphClass: 1
Flags: W
LayerCount: 2
Fore
SplineSet
258 -535 m 2,0,1
 322 -535 322 -535 354 -534.5 c 128,-1,2
 386 -534 386 -534 387 -532 c 0,3,4
 387 -526 387 -526 379 -513 c 0,5,6
 365 -489 365 -489 352.5 -456.5 c 128,-1,7
 340 -424 340 -424 312 -338 c 0,8,9
 294 -283 294 -283 286 -265 c 0,10,11
 281 -257 281 -257 278.5 -254.5 c 128,-1,12
 276 -252 276 -252 271 -252 c 0,13,14
 263 -252 263 -252 260 -258 c 2,15,-1
 213 -375 l 1,16,-1
 168 -486 l 1,17,-1
 140 -487 l 2,18,19
 125 -487 125 -487 117 -488.5 c 128,-1,20
 109 -490 109 -490 106 -493 c 0,21,22
 101 -498 101 -498 101 -501 c 0,23,24
 101 -506 101 -506 116 -521 c 2,25,-1
 131 -535 l 1,26,-1
 258 -535 l 2,0,1
258 -471 m 1,27,-1
 229 -474 l 1,28,-1
 229 -467 l 2,29,30
 229 -461 229 -461 248.5 -418.5 c 128,-1,31
 268 -376 268 -376 271 -377 c 0,32,33
 272 -378 272 -378 280.5 -423 c 128,-1,34
 289 -468 289 -468 288 -470 c 2,35,-1
 258 -471 l 1,27,-1
EndSplineSet
EndChar

StartChar: five
Encoding: 53 53 54
Width: 435
GlyphClass: 1
Flags: W
LayerCount: 2
Fore
SplineSet
114.5 -538 m 128,-1,1
 118 -539 118 -539 129 -539 c 0,2,3
 155 -539 155 -539 180 -527 c 0,4,5
 193 -521 193 -521 202 -511.5 c 128,-1,6
 211 -502 211 -502 213 -492 c 0,7,8
 217 -483 217 -483 217 -483 c 1,9,-1
 288 -500 l 2,10,11
 364 -517 364 -517 367 -517 c 0,12,13
 371 -517 371 -517 374 -515.5 c 128,-1,14
 377 -514 377 -514 380 -511 c 0,15,16
 384 -507 384 -507 385 -503.5 c 128,-1,17
 386 -500 386 -500 386 -492 c 0,18,19
 386 -481 386 -481 384 -474.5 c 128,-1,20
 382 -468 382 -468 376 -460 c 0,21,22
 372 -455 372 -455 362 -452.5 c 128,-1,23
 352 -450 352 -450 304 -443 c 0,24,25
 226 -429 226 -429 209 -422 c 0,26,27
 204 -421 204 -421 205 -416 c 0,28,29
 206 -415 206 -415 206 -413.5 c 128,-1,30
 206 -412 206 -412 207 -412 c 0,31,32
 211 -407 211 -407 267 -387.5 c 128,-1,33
 323 -368 323 -368 337 -367 c 0,34,35
 352 -365 352 -365 356 -362 c 0,36,37
 363 -359 363 -359 368 -352.5 c 128,-1,38
 373 -346 373 -346 374 -341 c 0,39,40
 375 -334 375 -334 373 -321 c 128,-1,41
 371 -308 371 -308 368 -303 c 0,42,43
 366 -299 366 -299 362.5 -298 c 128,-1,44
 359 -297 359 -297 352 -297 c 0,45,46
 342 -297 342 -297 325.5 -302 c 128,-1,47
 309 -307 309 -307 269 -321 c 2,48,-1
 200 -345 l 2,49,50
 199 -345 199 -345 197 -341 c 0,51,52
 196 -336 196 -336 201 -297 c 2,53,-1
 206 -257 l 1,54,-1
 202 -253 l 2,55,56
 198 -249 198 -249 194 -249 c 0,57,58
 189 -249 189 -249 173 -252 c 0,59,60
 131 -261 131 -261 117 -275 c 2,61,-1
 109 -282 l 1,62,-1
 109 -296 l 2,63,64
 109 -310 109 -310 125 -373 c 0,65,66
 139 -430 139 -430 139 -442 c 0,67,68
 139 -448 139 -448 131 -466 c 128,-1,69
 123 -484 123 -484 112 -499 c 256,70,71
 101 -514 101 -514 101 -519 c 0,72,73
 101 -523 101 -523 103 -527.5 c 128,-1,74
 105 -532 105 -532 108 -533 c 0,75,0
 111 -537 111 -537 114.5 -538 c 128,-1,1
EndSplineSet
EndChar

StartChar: six
Encoding: 54 54 55
Width: 526
GlyphClass: 1
Flags: W
LayerCount: 2
Fore
SplineSet
164 -537 m 2,1,-1
 210 -522 l 2,2,3
 252 -507 252 -507 266 -507 c 0,4,5
 276 -507 276 -507 284.5 -510.5 c 128,-1,6
 293 -514 293 -514 311 -524 c 2,7,-1
 328 -533 l 1,8,-1
 356 -535 l 1,9,-1
 395 -537 l 2,10,11
 409 -537 409 -537 417 -533 c 0,12,13
 426 -528 426 -528 426 -527 c 0,14,15
 424 -522 424 -522 416.5 -512 c 128,-1,16
 409 -502 409 -502 401 -493 c 0,17,18
 368 -456 368 -456 336 -449 c 0,19,20
 324 -446 324 -446 312 -446 c 0,21,22
 285 -446 285 -446 259 -458 c 0,23,24
 247 -464 247 -464 247 -462 c 0,25,26
 247 -456 247 -456 274 -429.5 c 128,-1,27
 301 -403 301 -403 329 -382 c 0,28,29
 353 -364 353 -364 375 -342 c 128,-1,30
 397 -320 397 -320 402 -310 c 256,31,32
 407 -300 407 -300 407 -295 c 256,33,34
 407 -290 407 -290 399 -280 c 0,35,36
 391 -273 391 -273 379 -270 c 256,37,38
 367 -267 367 -267 338 -267 c 0,39,40
 288 -267 288 -267 261 -273 c 0,41,42
 248 -276 248 -276 234 -276 c 0,43,44
 210 -276 210 -276 199 -268 c 0,45,46
 193 -265 193 -265 189 -257 c 256,47,48
 185 -249 185 -249 180 -249 c 256,49,50
 175 -249 175 -249 167 -255 c 128,-1,51
 159 -261 159 -261 153 -269 c 0,52,53
 149 -275 149 -275 145.5 -278 c 128,-1,54
 142 -281 142 -281 135 -282 c 0,55,56
 107 -291 107 -291 103 -296 c 0,57,58
 101 -298 101 -298 101 -300 c 128,-1,59
 101 -302 101 -302 102 -304 c 0,60,61
 108 -314 108 -314 136.5 -321 c 128,-1,62
 165 -328 165 -328 226 -333 c 2,63,-1
 242 -334 l 1,64,-1
 226 -353 l 2,65,66
 142 -454 142 -454 142 -498 c 0,67,68
 142 -510 142 -510 155 -529 c 0,69,0
 163 -537 163 -537 164 -537 c 2,1,-1
EndSplineSet
EndChar

StartChar: seven
Encoding: 55 55 56
Width: 536
GlyphClass: 1
Flags: W
LayerCount: 2
Fore
SplineSet
436 -286 m 0,1,2
 436 -300 436 -300 407 -329 c 0,3,4
 392 -343 392 -343 370 -377 c 128,-1,5
 348 -411 348 -411 332 -445 c 0,6,7
 293 -525 293 -525 288 -525 c 0,8,9
 285 -525 285 -525 272.5 -512.5 c 128,-1,10
 260 -500 260 -500 246 -482 c 0,11,12
 180 -399 180 -399 180 -334 c 2,13,-1
 180 -302 l 1,14,-1
 156 -325 l 2,15,16
 139 -341 139 -341 121 -341 c 0,17,18
 112 -341 112 -341 106 -334.5 c 128,-1,19
 100 -328 100 -328 100 -316 c 256,20,21
 100 -304 100 -304 116 -289.5 c 128,-1,22
 132 -275 132 -275 155.5 -265 c 128,-1,23
 179 -255 179 -255 198 -255 c 0,24,25
 214 -255 214 -255 220 -258 c 128,-1,26
 226 -261 226 -261 229.5 -273 c 128,-1,27
 233 -285 233 -285 239 -319 c 0,28,29
 246 -358 246 -358 255 -391 c 128,-1,30
 264 -424 264 -424 272 -439.5 c 128,-1,31
 280 -455 280 -455 283 -445 c 0,32,33
 310 -369 310 -369 325.5 -332 c 128,-1,34
 341 -295 341 -295 356 -280 c 0,35,36
 377 -257 377 -257 401 -257 c 0,37,38
 420 -257 420 -257 433 -276 c 0,39,0
 436 -281 436 -281 436 -286 c 0,1,2
EndSplineSet
EndChar

StartChar: comma
Encoding: 44 44 57
Width: 879
GlyphClass: 1
Flags: W
LayerCount: 2
Fore
SplineSet
349 423 m 1,0,-1
 348 447 l 2,1,2
 345 495 345 495 334 518 c 0,3,4
 329 529 329 529 329 539 c 0,5,6
 329 546 329 546 331 549 c 2,7,-1
 335 553 l 1,8,-1
 509 553 l 1,9,-1
 507 581 l 2,10,11
 504 630 504 630 493 657 c 0,12,13
 487 669 487 669 487 678 c 0,14,15
 487 685 487 685 490 688 c 2,16,-1
 493 693 l 1,17,-1
 549 691 l 2,18,19
 615 689 615 689 665 689 c 2,20,-1
 726 690 l 1,21,-1
 736 691 l 2,22,23
 742 691 742 691 746 687 c 0,24,25
 756 681 756 681 759 661 c 2,26,-1
 759 655 l 2,27,28
 759 649 759 649 755 645 c 0,29,30
 747 637 747 637 728 637 c 0,31,32
 714 637 714 637 685 640 c 0,33,34
 667 642 667 642 624 642 c 0,35,36
 600 642 600 642 590 641.5 c 128,-1,37
 580 641 580 641 580 639 c 0,38,39
 580 636 580 636 581.5 622.5 c 128,-1,40
 583 609 583 609 585 579 c 2,41,-1
 589 529 l 1,42,-1
 590 524 l 2,43,44
 591 513 591 513 589.5 509 c 128,-1,45
 588 505 588 505 578.5 503 c 128,-1,46
 569 501 569 501 546 501 c 2,47,-1
 499 502 l 1,48,-1
 419 504 l 1,49,-1
 421 493 l 1,50,-1
 425 433 l 2,51,52
 427 412 427 412 427 393 c 0,53,54
 427 384 427 384 425 381 c 0,55,56
 423 376 423 376 417 374.5 c 128,-1,57
 411 373 411 373 397 373 c 0,58,59
 375 373 375 373 359 374 c 2,60,-1
 285 376 l 1,61,-1
 257 376 l 1,62,-1
 257 371 l 2,63,64
 257 367 257 367 259 350 c 128,-1,65
 261 333 261 333 262 314 c 0,66,67
 265 287 265 287 265 275 c 0,68,69
 265 262 265 262 261 258 c 128,-1,70
 257 254 257 254 243 250 c 0,71,72
 234 245 234 245 226 245 c 256,73,74
 218 245 218 245 211 252 c 0,75,76
 198 261 198 261 193 275 c 128,-1,77
 188 289 188 289 186 321 c 0,78,79
 184 352 184 352 180.5 368.5 c 128,-1,80
 177 385 177 385 169 397 c 0,81,82
 165 405 165 405 165 408 c 0,83,84
 165 412 165 412 169 420 c 2,85,-1
 173 425 l 1,86,-1
 349 423 l 1,0,-1
127.5 -249 m 128,-1,88
 130 -248 130 -248 132 -247 c 0,89,90
 141 -244 141 -244 150 -244 c 2,91,-1
 162 -243 l 1,92,-1
 201 -128 l 2,93,94
 221 -68 221 -68 241 -14 c 0,95,96
 242 -14 242 -14 264 -55 c 0,97,98
 286 -98 286 -98 309 -159 c 0,99,100
 331 -217 331 -217 335 -226 c 0,101,102
 337 -229 337 -229 342 -229 c 0,103,104
 350 -229 350 -229 359 -223 c 0,105,106
 368 -218 368 -218 371 -212.5 c 128,-1,107
 374 -207 374 -207 374 -197 c 0,108,109
 374 -182 374 -182 370 -165.5 c 128,-1,110
 366 -149 366 -149 356 -118 c 0,111,112
 348 -92 348 -92 331.5 -53 c 128,-1,113
 315 -14 315 -14 308 0 c 0,114,115
 300 12 300 12 290 35 c 0,116,117
 283 51 283 51 281.5 56.5 c 128,-1,118
 280 62 280 62 280 75 c 0,119,120
 280 85 280 85 283 94 c 128,-1,121
 286 103 286 103 295 124 c 0,122,123
 302 141 302 141 309 152 c 128,-1,124
 316 163 316 163 328 179 c 2,125,-1
 350 208 l 1,126,-1
 347 215 l 1,127,-1
 345 222 l 1,128,-1
 331 223 l 2,129,130
 316 223 316 223 314 222 c 0,131,132
 303 216 303 216 279 168 c 2,133,-1
 259 126 l 2,134,135
 257 120 257 120 255 117.5 c 128,-1,136
 253 115 253 115 250 115 c 0,137,138
 245 115 245 115 239 120.5 c 128,-1,139
 233 126 233 126 208 155 c 2,140,-1
 175 196 l 1,141,-1
 168 195 l 2,142,143
 159 194 159 194 149 190 c 128,-1,144
 139 186 139 186 133 179 c 0,145,146
 126 172 126 172 123 165.5 c 128,-1,147
 120 159 120 159 120 148 c 0,148,149
 120 138 120 138 122 134.5 c 128,-1,150
 124 131 124 131 130 130 c 0,151,152
 145 127 145 127 164 108 c 0,153,154
 172 99 172 99 188 75.5 c 128,-1,155
 204 52 204 52 212 37 c 2,156,-1
 219 24 l 1,157,-1
 171 -107 l 2,158,159
 122 -236 122 -236 122 -242 c 2,160,-1
 123 -248 l 2,161,87
 125 -250 125 -250 127.5 -249 c 128,-1,88
EndSplineSet
EndChar

StartChar: exclam
Encoding: 33 33 58
Width: 0
GlyphClass: 1
Flags: W
LayerCount: 2
Fore
SplineSet
-280 -35 m 0,1,2
 -276 -35 -276 -35 -263 -30 c 0,3,4
 -255 -26 -255 -26 -255 -19 c 0,5,6
 -255 -10 -255 -10 -260 1 c 0,7,8
 -271 25 -271 25 -276 57 c 128,-1,9
 -281 89 -281 89 -279 122 c 2,10,-1
 -276 144 l 1,11,-1
 -242 144 l 2,12,13
 -224 144 -224 144 -215.5 145 c 128,-1,14
 -207 146 -207 146 -203 150 c 0,15,16
 -198 155 -198 155 -200 163 c 0,17,18
 -200 165 -200 165 -200.5 171 c 128,-1,19
 -201 177 -201 177 -225.5 178 c 128,-1,20
 -250 179 -250 179 -291 179 c 2,21,-1
 -375 179 l 1,22,-1
 -540 179 l 1,23,-1
 -545 174 l 2,24,25
 -555 164 -555 164 -555 147 c 0,26,27
 -555 136 -555 136 -550 132.5 c 128,-1,28
 -545 129 -545 129 -530 128 c 2,29,-1
 -524 128 l 2,30,31
 -516 128 -516 128 -513.5 130.5 c 128,-1,32
 -511 133 -511 133 -511 140 c 2,33,-1
 -511 145 l 1,34,-1
 -477 145 l 2,35,36
 -460 145 -460 145 -449.5 144 c 128,-1,37
 -439 143 -439 143 -436.5 139.5 c 128,-1,38
 -434 136 -434 136 -434 127 c 0,39,40
 -434 109 -434 109 -452 21 c 0,41,42
 -460 -8 -460 -8 -460 -16 c 0,43,44
 -458 -18 -458 -18 -448 -18 c 0,45,46
 -421 -18 -421 -18 -411.5 -15 c 128,-1,47
 -402 -12 -402 -12 -395 1 c 0,48,49
 -390 12 -390 12 -388.5 25 c 128,-1,50
 -387 38 -387 38 -386 74 c 0,51,52
 -383 112 -383 112 -383 130 c 2,53,-1
 -382 145 l 1,54,-1
 -347 145 l 1,55,-1
 -348 105 l 1,56,-1
 -349 75 l 2,57,58
 -349 28 -349 28 -339 11 c 0,59,60
 -327 -20 -327 -20 -290 -33 c 0,61,0
 -282 -35 -282 -35 -280 -35 c 0,1,2
EndSplineSet
EndChar

StartChar: slash
Encoding: 47 47 60
Width: 579
GlyphClass: 1
Flags: W
LayerCount: 2
Fore
SplineSet
452 129 m 0,1,2
 462 129 462 129 467 140 c 0,3,4
 472 146 472 146 472 151 c 0,5,6
 472 155 472 155 468 163 c 0,7,8
 463 174 463 174 443 191 c 0,9,10
 414 213 414 213 400.5 237.5 c 128,-1,11
 387 262 387 262 369 324 c 0,12,13
 344 408 344 408 333 439 c 128,-1,14
 322 470 322 470 311 489 c 0,15,16
 270 558 270 558 222 566 c 0,17,18
 209 567 209 567 199 563 c 128,-1,19
 189 559 189 559 175 548 c 0,20,21
 167 542 167 542 165.5 538.5 c 128,-1,22
 164 535 164 535 166 528 c 256,23,24
 168 521 168 521 171.5 518.5 c 128,-1,25
 175 516 175 516 187 514 c 0,26,27
 212 508 212 508 226 496 c 128,-1,28
 240 484 240 484 254 457 c 0,29,30
 275 415 275 415 275 387 c 0,31,32
 275 342 275 342 210 206 c 0,33,34
 204 193 204 193 199.5 182 c 128,-1,35
 195 171 195 171 196 169 c 0,36,37
 198 164 198 164 208.5 160 c 128,-1,38
 219 156 219 156 226 157 c 0,39,40
 237 159 237 159 245.5 168 c 128,-1,41
 254 177 254 177 264 196 c 2,42,-1
 282 229 l 1,43,-1
 291 247 l 1,44,-1
 305 272 l 1,45,-1
 307 262 l 2,46,47
 312 246 312 246 335 213 c 128,-1,48
 358 180 358 180 376 164 c 0,49,50
 387 153 387 153 402 144.5 c 128,-1,51
 417 136 417 136 430 133 c 0,52,0
 450 129 450 129 452 129 c 0,1,2
400 -189 m 2,53,54
 406 -189 406 -189 415.5 -183.5 c 128,-1,55
 425 -178 425 -178 429 -173 c 0,56,57
 432 -167 432 -167 432 -163 c 0,58,59
 432 -160 432 -160 426 -137 c 0,60,61
 417 -105 417 -105 414.5 -81.5 c 128,-1,62
 412 -58 412 -58 411 -15 c 2,63,-1
 411 36 l 1,64,-1
 420 39 l 2,65,66
 422 40 422 40 429 40 c 0,67,68
 439 40 439 40 446 38 c 0,69,70
 458 35 458 35 462 35 c 256,71,72
 466 35 466 35 468.5 38 c 128,-1,73
 471 41 471 41 472 42 c 0,74,75
 479 49 479 49 479 67 c 0,76,77
 479 78 479 78 476 84 c 0,78,79
 472 91 472 91 462 94 c 128,-1,80
 452 97 452 97 413 98 c 128,-1,81
 374 99 374 99 309 100 c 2,82,-1
 166 102 l 1,83,-1
 159 94 l 2,84,85
 154 89 154 89 152.5 83.5 c 128,-1,86
 151 78 151 78 150 63 c 2,87,-1
 150 50 l 2,88,89
 150 37 150 37 157 29 c 0,90,91
 162 22 162 22 165 19.5 c 128,-1,92
 168 17 168 17 175 17 c 256,93,94
 182 17 182 17 185 19.5 c 128,-1,95
 188 22 188 22 193 30 c 0,96,97
 202 44 202 44 204 45 c 0,98,99
 205 46 205 46 222 44 c 128,-1,100
 239 42 239 42 250 39 c 0,101,102
 253 38 253 38 254 31.5 c 128,-1,103
 255 25 255 25 255 11 c 0,104,105
 255 -13 255 -13 249.5 -53 c 128,-1,106
 244 -93 244 -93 237 -118 c 0,107,108
 232 -137 232 -137 232 -152 c 0,109,110
 232 -168 232 -168 246 -168 c 0,111,112
 262 -168 262 -168 278.5 -158.5 c 128,-1,113
 295 -149 295 -149 304 -135 c 2,114,-1
 313 -121 l 1,115,-1
 313 -62 l 2,116,117
 313 -5 313 -5 315 21 c 0,118,119
 316 36 316 36 317 39.5 c 128,-1,120
 318 43 318 43 323 43 c 0,121,122
 326 43 326 43 327.5 39.5 c 128,-1,123
 329 36 329 36 330 19.5 c 128,-1,124
 331 3 331 3 332 -24 c 0,125,126
 334 -93 334 -93 337 -110 c 0,127,128
 341 -138 341 -138 355.5 -159.5 c 128,-1,129
 370 -181 370 -181 387 -186 c 2,130,-1
 400 -189 l 2,53,54
EndSplineSet
EndChar

StartChar: bracketleft
Encoding: 91 91 62
Width: 633
GlyphClass: 1
Flags: W
LayerCount: 2
Fore
SplineSet
380 687 m 0,1,2
 391 687 391 687 390 694 c 0,3,4
 390 700 390 700 365.5 713.5 c 128,-1,5
 341 727 341 727 318 734 c 2,6,-1
 292 742 l 1,7,-1
 312 746 l 2,8,9
 349 754 349 754 383.5 780 c 128,-1,10
 418 806 418 806 429 834 c 0,11,12
 435 848 435 848 439 913 c 0,13,14
 441 958 441 958 447.5 979 c 128,-1,15
 454 1000 454 1000 468 1008 c 0,16,17
 476 1012 476 1012 476 1027 c 0,18,19
 476 1047 476 1047 463 1056 c 0,20,21
 452 1064 452 1064 439 1064 c 0,22,23
 427 1064 427 1064 412 1056 c 0,24,25
 392 1046 392 1046 381 1017 c 128,-1,26
 370 988 370 988 365 933 c 0,27,28
 359 869 359 869 344 837.5 c 128,-1,29
 329 806 329 806 295 786 c 0,30,31
 281 778 281 778 264.5 771.5 c 128,-1,32
 248 765 248 765 237 764 c 2,33,-1
 210 759 l 1,34,-1
 324 705 l 2,35,0
 362 687 362 687 380 687 c 0,1,2
292.5 534 m 128,-1,37
 313 538 313 538 319 543 c 0,38,39
 330 553 330 553 330 568 c 0,40,41
 330 588 330 588 311 600 c 0,42,43
 295 610 295 610 250.5 621 c 128,-1,44
 206 632 206 632 180 632 c 0,45,46
 157 632 157 632 157 624 c 0,47,48
 157 619 157 619 167.5 613.5 c 128,-1,49
 178 608 178 608 195 606 c 0,50,51
 233 600 233 600 248.5 592.5 c 128,-1,52
 264 585 264 585 264 573 c 0,53,54
 264 566 264 566 257 560.5 c 128,-1,55
 250 555 250 555 240 553 c 0,56,57
 219 550 219 550 219 541 c 0,58,59
 219 536 219 536 228 533 c 128,-1,60
 237 530 237 530 253 530 c 0,61,36
 272 530 272 530 292.5 534 c 128,-1,37
469.5 534 m 128,-1,63
 490 538 490 538 496 543 c 0,64,65
 507 553 507 553 507 568 c 0,66,67
 507 588 507 588 488 600 c 0,68,69
 472 610 472 610 427.5 621 c 128,-1,70
 383 632 383 632 357 632 c 0,71,72
 334 632 334 632 334 624 c 0,73,74
 334 619 334 619 344.5 613.5 c 128,-1,75
 355 608 355 608 372 606 c 0,76,77
 410 600 410 600 425.5 592.5 c 128,-1,78
 441 585 441 585 441 573 c 0,79,80
 441 566 441 566 434 560.5 c 128,-1,81
 427 555 427 555 417 553 c 0,82,83
 396 550 396 550 396 541 c 0,84,85
 396 536 396 536 405 533 c 128,-1,86
 414 530 414 530 430 530 c 0,87,62
 449 530 449 530 469.5 534 c 128,-1,63
407.5 19 m 128,-1,89
 409 14 409 14 415 13 c 128,-1,90
 421 12 421 12 440 12 c 0,91,92
 456 12 456 12 463.5 14.5 c 128,-1,93
 471 17 471 17 469 22 c 0,94,95
 466 27 466 27 466 35 c 0,96,97
 466 49 466 49 476 74 c 128,-1,98
 486 99 486 99 504 128 c 0,99,100
 533 178 533 178 533 207 c 0,101,102
 533 223 533 223 523 230 c 0,103,104
 519 233 519 233 503 234 c 128,-1,105
 487 235 487 235 468 234 c 2,106,-1
 423 230 l 1,107,-1
 433 284 l 2,108,109
 448 361 448 361 448 399 c 0,110,111
 448 429 448 429 439 446 c 128,-1,112
 430 463 430 463 409 473 c 0,113,114
 387 485 387 485 342 485 c 0,115,116
 320 485 320 485 300.5 481.5 c 128,-1,117
 281 478 281 478 269 471 c 0,118,119
 240 453 240 453 228 431 c 128,-1,120
 216 409 216 409 216 373 c 0,121,122
 218 331 218 331 225 309 c 2,123,-1
 232 288 l 1,124,-1
 201 294 l 2,125,126
 196 295 196 295 187 295 c 0,127,128
 161 295 161 295 141.5 283 c 128,-1,129
 122 271 122 271 112 249 c 0,130,131
 100 222 100 222 100 198 c 0,132,133
 100 154 100 154 133.5 124.5 c 128,-1,134
 167 95 167 95 221 95 c 0,135,136
 270 95 270 95 295.5 118.5 c 128,-1,137
 321 142 321 142 321 186 c 0,138,139
 321 222 321 222 305 266 c 0,140,141
 287 319 287 319 287 356 c 0,142,143
 287 419 287 419 337 428 c 0,144,145
 349 430 349 430 353 430 c 0,146,147
 366 430 366 430 373 420 c 0,148,149
 382 407 382 407 382 383 c 0,150,151
 382 355 382 355 372 285 c 0,152,153
 366 240 366 240 366 217 c 0,154,155
 366 192 366 192 374.5 184.5 c 128,-1,156
 383 177 383 177 407 177 c 2,157,-1
 459 178 l 2,158,159
 461 178 461 178 454 160.5 c 128,-1,160
 447 143 447 143 435 120 c 0,161,162
 422 97 422 97 414 74.5 c 128,-1,163
 406 52 406 52 406 40 c 0,164,88
 406 24 406 24 407.5 19 c 128,-1,89
223 135 m 256,166,167
 199 135 199 135 181.5 151.5 c 128,-1,168
 164 168 164 168 164 192 c 0,169,170
 164 205 164 205 168 214 c 0,171,172
 175 234 175 234 188 243 c 128,-1,173
 201 252 201 252 224 252 c 256,174,175
 247 252 247 252 262.5 233.5 c 128,-1,176
 278 215 278 215 278 191 c 0,177,178
 278 171 278 171 266 156 c 0,179,165
 247 135 247 135 223 135 c 256,166,167
EndSplineSet
EndChar

StartChar: quotedblleft
Encoding: 8220 8220 63
Width: 1361
GlyphClass: 1
Flags: W
LayerCount: 2
Fore
SplineSet
568 -77 m 0,1,2
 579 -77 579 -77 585 -76 c 0,3,4
 592 -76 592 -76 594.5 -75 c 128,-1,5
 597 -74 597 -74 596 -72 c 0,6,7
 596 -67 596 -67 590 -61 c 128,-1,8
 584 -55 584 -55 564 -40 c 0,9,10
 537 -21 537 -21 537 -18 c 2,11,-1
 532 17 l 2,12,13
 528 51 528 51 528 54 c 0,14,15
 528 66 528 66 532 66 c 0,16,17
 533 67 533 67 620 58 c 0,18,19
 707 47 707 47 707 49 c 0,20,21
 709 50 709 50 712 62 c 128,-1,22
 715 74 715 74 713 76 c 0,23,24
 712 77 712 77 609 89.5 c 128,-1,25
 506 102 506 102 468 106 c 0,26,27
 466 104 466 104 466 74 c 2,28,-1
 466 44 l 1,29,-1
 424 112 l 2,30,31
 380 182 380 182 373 191 c 0,32,33
 367 199 367 199 342 220 c 0,34,35
 321 235 321 235 307.5 242.5 c 128,-1,36
 294 250 294 250 276 256 c 0,37,38
 265 260 265 260 255 261 c 128,-1,39
 245 262 245 262 222 262 c 2,40,-1
 184 264 l 1,41,-1
 166 255 l 2,42,43
 149 245 149 245 150 244 c 2,44,45
 150 244 150 244 181 238 c 0,46,47
 205 235 205 235 225 230 c 0,48,49
 236 227 236 227 242.5 223.5 c 128,-1,50
 249 220 249 220 262 210 c 0,51,52
 284 194 284 194 293.5 183 c 128,-1,53
 303 172 303 172 313 151 c 2,54,-1
 323 133 l 1,55,-1
 314 110 l 2,56,57
 305 85 305 85 295 70.5 c 128,-1,58
 285 56 285 56 245 9 c 0,59,60
 198 -46 198 -46 199 -47 c 2,61,-1
 233 -53 l 1,62,-1
 266 -59 l 1,63,-1
 278 -51 l 2,64,65
 286 -44 286 -44 293.5 -35.5 c 128,-1,66
 301 -27 301 -27 315 -8 c 0,67,68
 343 30 343 30 349 41 c 0,69,70
 358 57 358 57 358 55 c 1,71,72
 359 55 359 55 371 37 c 0,73,74
 384 16 384 16 397.5 3 c 128,-1,75
 411 -10 411 -10 448 -37 c 2,76,-1
 491 -68 l 2,77,78
 494 -69 494 -69 524 -73 c 0,79,0
 552 -77 552 -77 568 -77 c 0,1,2
735 -59 m 1,80,-1
 752 -55 l 2,81,82
 766 -51 766 -51 796.5 -37.5 c 128,-1,83
 827 -24 827 -24 844 -14 c 0,84,85
 858 -5 858 -5 868 -3 c 0,86,87
 880 0 880 0 880 -1 c 1,88,89
 882 -1 882 -1 886 -17 c 0,90,91
 891 -31 891 -31 894 -34 c 2,92,-1
 910 -43 l 1,93,-1
 924 -50 l 1,94,-1
 940 -50 l 2,95,96
 967 -51 967 -51 989 -44 c 0,97,98
 1025 -33 1025 -33 1048.5 -5 c 128,-1,99
 1072 23 1072 23 1077 61 c 2,100,-1
 1078 70 l 2,101,102
 1078 73 1078 73 1076 79 c 128,-1,103
 1074 85 1074 85 1073 91 c 0,104,105
 1069 109 1069 109 1066 110 c 2,106,-1
 1046 117 l 1,107,-1
 1030 122 l 1,108,-1
 991 116 l 1,109,-1
 962 99 l 2,110,111
 946 90 946 90 938 84.5 c 128,-1,112
 930 79 930 79 922 70 c 0,113,114
 913 60 913 60 902 52.5 c 128,-1,115
 891 45 891 45 868 30 c 256,116,117
 845 15 845 15 834 8.5 c 128,-1,118
 823 2 823 2 814 1 c 2,119,-1
 801 -3 l 1,120,-1
 798 3 l 2,121,122
 796 7 796 7 795.5 11.5 c 128,-1,123
 795 16 795 16 795 25 c 0,124,125
 795 35 795 35 797 42 c 128,-1,126
 799 49 799 49 803 59 c 0,127,128
 811 77 811 77 821 107 c 0,129,130
 826 122 826 122 829 130 c 128,-1,131
 832 138 832 138 832 140 c 2,132,-1
 837 141 l 1,133,-1
 858 139 l 1,134,-1
 883 138 l 1,135,-1
 901 142 l 1,136,-1
 920 147 l 2,137,138
 922 149 922 149 922 158 c 2,139,-1
 923 166 l 1,140,-1
 913 174 l 1,141,-1
 890 189 l 1,142,-1
 877 195 l 1,143,-1
 788 201 l 2,144,145
 704 205 704 205 678 205 c 0,146,147
 589 205 589 205 584 200 c 0,148,149
 583 200 583 200 583 197 c 2,150,-1
 584 185 l 2,151,152
 586 173 586 173 588 171 c 0,153,154
 589 169 589 169 634.5 163 c 128,-1,155
 680 157 680 157 725 153 c 2,156,-1
 781 148 l 1,157,-1
 777 135 l 2,158,159
 770 111 770 111 728 62 c 0,160,161
 715 47 715 47 710.5 39.5 c 128,-1,162
 706 32 706 32 700 20 c 2,163,-1
 693 3 l 1,164,-1
 696 -18 l 2,165,166
 697 -37 697 -37 700 -40 c 256,167,168
 703 -43 703 -43 717 -50 c 2,169,-1
 735 -59 l 1,80,-1
976 -118 m 128,-1,171
 984 -117 984 -117 1011 -113 c 0,172,173
 1050 -108 1050 -108 1087 -101 c 2,174,-1
 1120 -93 l 1,175,-1
 1139 -83 l 2,176,177
 1150 -77 1150 -77 1156 -72 c 128,-1,178
 1162 -67 1162 -67 1171 -58 c 0,179,180
 1181 -48 1181 -48 1184 -43.5 c 128,-1,181
 1187 -39 1187 -39 1194 -25 c 2,182,-1
 1204 -6 l 1,183,-1
 1202 6 l 2,184,185
 1202 13 1202 13 1197 35 c 2,186,-1
 1193 52 l 1,187,-1
 1196 66 l 2,188,189
 1198 75 1198 75 1202 85 c 0,190,191
 1207 93 1207 93 1210 102.5 c 128,-1,192
 1213 112 1213 112 1210 113 c 0,193,194
 1198 115 1198 115 1186 115 c 2,195,-1
 1164 117 l 1,196,-1
 1143 112 l 2,197,198
 1121 107 1121 107 1121 106 c 2,199,-1
 1108 90 l 2,200,201
 1101 82 1101 82 1098.5 77 c 128,-1,202
 1096 72 1096 72 1094 66 c 0,203,204
 1093 61 1093 61 1093 54 c 0,205,206
 1093 46 1093 46 1095 42 c 2,207,-1
 1100 10 l 1,208,-1
 1104 -14 l 1,209,-1
 1096 -34 l 1,210,-1
 1089 -53 l 1,211,-1
 1076 -66 l 1,212,-1
 1063 -80 l 1,213,-1
 1016 -98 l 1,214,-1
 968 -115 l 2,215,216
 966 -117 966 -117 967 -117 c 0,217,170
 968 -119 968 -119 976 -118 c 128,-1,171
984 -15 m 128,-1,219
 981 -16 981 -16 976 -14 c 0,220,221
 973 -13 973 -13 972 -11.5 c 128,-1,222
 971 -10 971 -10 971 -5 c 0,223,224
 970 0 970 0 970 7 c 0,225,226
 970 15 970 15 977 32 c 2,227,-1
 984 48 l 1,228,-1
 1010 73 l 1,229,-1
 1035 98 l 1,230,-1
 1041 96 l 1,231,-1
 1047 95 l 1,232,-1
 1045 81 l 1,233,-1
 1039 48 l 1,234,-1
 1034 29 l 1,235,-1
 1022 16 l 2,236,237
 1009 1 1009 1 997 -7 c 0,238,218
 987 -14 987 -14 984 -15 c 128,-1,219
EndSplineSet
EndChar

StartChar: dollar
Encoding: 36 36 64
Width: 0
GlyphClass: 1
Flags: W
LayerCount: 2
Fore
SplineSet
-356 81 m 2,0,1
 -292 81 -292 81 -260 81.5 c 128,-1,2
 -228 82 -228 82 -227 84 c 0,3,4
 -227 90 -227 90 -235 103 c 0,5,6
 -249 127 -249 127 -261.5 159.5 c 128,-1,7
 -274 192 -274 192 -302 278 c 0,8,9
 -321 334 -321 334 -328 351 c 0,10,11
 -333 359 -333 359 -335.5 361.5 c 128,-1,12
 -338 364 -338 364 -343 364 c 0,13,14
 -351 364 -351 364 -354 358 c 2,15,-1
 -401 241 l 1,16,-1
 -446 130 l 1,17,-1
 -474 129 l 2,18,19
 -489 129 -489 129 -497 127.5 c 128,-1,20
 -505 126 -505 126 -508 123 c 0,21,22
 -513 118 -513 118 -513 115 c 0,23,24
 -513 110 -513 110 -498 95 c 2,25,-1
 -483 81 l 1,26,-1
 -356 81 l 2,0,1
-356 145 m 1,27,-1
 -385 142 l 1,28,-1
 -385 149 l 2,29,30
 -385 155 -385 155 -365.5 197.5 c 128,-1,31
 -346 240 -346 240 -343 239 c 0,32,33
 -342 238 -342 238 -333.5 193 c 128,-1,34
 -325 148 -325 148 -326 146 c 2,35,-1
 -356 145 l 1,27,-1
EndSplineSet
EndChar

StartChar: asciitilde
Encoding: 126 126 66
Width: 0
GlyphClass: 1
Flags: W
LayerCount: 2
Fore
SplineSet
-65 238 m 0,1,2
 -65 231 -65 231 -52 240 c 128,-1,3
 -39 249 -39 249 -11 277 c 0,4,5
 11 298 11 298 21 311.5 c 128,-1,6
 31 325 31 325 31 335 c 0,7,8
 31 344 31 344 20 353 c 0,9,10
 16 357 16 357 10 357 c 0,11,12
 -10 357 -10 357 -47 283 c 0,13,0
 -65 247 -65 247 -65 238 c 0,1,2
EndSplineSet
EndChar

StartChar: asciicircum
Encoding: 94 94 67
Width: 0
GlyphClass: 1
Flags: W
LayerCount: 2
Fore
SplineSet
-461 29 m 2,1,-1
 -415 44 l 2,2,3
 -373 59 -373 59 -359 59 c 0,4,5
 -349 59 -349 59 -340.5 55.5 c 128,-1,6
 -332 52 -332 52 -314 42 c 2,7,-1
 -297 33 l 1,8,-1
 -269 31 l 1,9,-1
 -230 29 l 2,10,11
 -216 29 -216 29 -208 33 c 0,12,13
 -199 38 -199 38 -199 39 c 0,14,15
 -201 44 -201 44 -208.5 54 c 128,-1,16
 -216 64 -216 64 -224 73 c 0,17,18
 -257 110 -257 110 -289 117 c 0,19,20
 -301 120 -301 120 -313 120 c 0,21,22
 -341 120 -341 120 -366 108 c 0,23,24
 -378 102 -378 102 -378 104 c 0,25,26
 -378 110 -378 110 -351 136.5 c 128,-1,27
 -324 163 -324 163 -296 184 c 0,28,29
 -272 202 -272 202 -250 224 c 128,-1,30
 -228 246 -228 246 -223 256 c 256,31,32
 -218 266 -218 266 -218 271 c 256,33,34
 -218 276 -218 276 -226 286 c 0,35,36
 -234 294 -234 294 -246 296 c 0,37,38
 -258 299 -258 299 -287 299 c 0,39,40
 -337 299 -337 299 -364 293 c 0,41,42
 -378 290 -378 290 -391 290 c 0,43,44
 -415 290 -415 290 -426 298 c 0,45,46
 -432 301 -432 301 -436 309 c 256,47,48
 -440 317 -440 317 -445 317 c 256,49,50
 -450 317 -450 317 -458 311 c 128,-1,51
 -466 305 -466 305 -472 297 c 0,52,53
 -476 291 -476 291 -479.5 288 c 128,-1,54
 -483 285 -483 285 -490 284 c 0,55,56
 -518 275 -518 275 -522 270 c 0,57,58
 -524 268 -524 268 -524 266 c 128,-1,59
 -524 264 -524 264 -523 262 c 0,60,61
 -517 252 -517 252 -488.5 245 c 128,-1,62
 -460 238 -460 238 -399 233 c 2,63,-1
 -383 232 l 1,64,-1
 -399 213 l 2,65,66
 -483 112 -483 112 -483 68 c 0,67,68
 -483 56 -483 56 -470 37 c 0,69,0
 -462 29 -462 29 -461 29 c 2,1,-1
EndSplineSet
EndChar

StartChar: percent
Encoding: 37 37 68
Width: 0
GlyphClass: 1
Flags: W
LayerCount: 2
Fore
SplineSet
-480.5 -72 m 128,-1,1
 -477 -73 -477 -73 -466 -73 c 0,2,3
 -441 -73 -441 -73 -415 -61 c 0,4,5
 -402 -55 -402 -55 -393 -45.5 c 128,-1,6
 -384 -36 -384 -36 -382 -26 c 0,7,8
 -378 -17 -378 -17 -378 -17 c 1,9,-1
 -307 -34 l 2,10,11
 -231 -51 -231 -51 -228 -51 c 0,12,13
 -224 -51 -224 -51 -221 -49.5 c 128,-1,14
 -218 -48 -218 -48 -215 -45 c 0,15,16
 -211 -41 -211 -41 -210 -37.5 c 128,-1,17
 -209 -34 -209 -34 -209 -26 c 0,18,19
 -209 -15 -209 -15 -211 -8.5 c 128,-1,20
 -213 -2 -213 -2 -219 6 c 0,21,22
 -223 11 -223 11 -233 13.5 c 128,-1,23
 -243 16 -243 16 -291 23 c 0,24,25
 -369 37 -369 37 -386 44 c 0,26,27
 -391 45 -391 45 -390 50 c 0,28,29
 -389 51 -389 51 -389 52.5 c 128,-1,30
 -389 54 -389 54 -388 54 c 0,31,32
 -384 59 -384 59 -328 78.5 c 128,-1,33
 -272 98 -272 98 -258 99 c 0,34,35
 -243 101 -243 101 -239 104 c 0,36,37
 -232 107 -232 107 -227 113.5 c 128,-1,38
 -222 120 -222 120 -221 125 c 0,39,40
 -220 132 -220 132 -222 145 c 128,-1,41
 -224 158 -224 158 -227 163 c 0,42,43
 -229 167 -229 167 -232.5 168 c 128,-1,44
 -236 169 -236 169 -243 169 c 0,45,46
 -253 169 -253 169 -269.5 164 c 128,-1,47
 -286 159 -286 159 -326 145 c 2,48,-1
 -395 121 l 2,49,50
 -396 121 -396 121 -398 125 c 0,51,52
 -399 130 -399 130 -394 169 c 2,53,-1
 -389 209 l 1,54,-1
 -393 213 l 2,55,56
 -397 217 -397 217 -401 217 c 0,57,58
 -406 217 -406 217 -422 214 c 0,59,60
 -464 205 -464 205 -478 191 c 2,61,-1
 -486 184 l 1,62,-1
 -486 170 l 2,63,64
 -486 156 -486 156 -470 93 c 0,65,66
 -456 36 -456 36 -456 24 c 0,67,68
 -456 18 -456 18 -464 0 c 128,-1,69
 -472 -18 -472 -18 -483 -33 c 256,70,71
 -494 -48 -494 -48 -494 -53 c 0,72,73
 -494 -57 -494 -57 -492 -61.5 c 128,-1,74
 -490 -66 -490 -66 -487 -67 c 0,75,0
 -484 -71 -484 -71 -480.5 -72 c 128,-1,1
EndSplineSet
EndChar

StartChar: bar
Encoding: 124 124 71
Width: 0
GlyphClass: 1
Flags: W
LayerCount: 2
Fore
SplineSet
-348 291 m 128,-1,1
 -343 294 -343 294 -339 297 c 0,2,3
 -335 301 -335 301 -334.5 311 c 128,-1,4
 -334 321 -334 321 -334 345 c 2,5,-1
 -334 402 l 2,6,7
 -335 469 -335 469 -336 485.5 c 128,-1,8
 -337 502 -337 502 -344 511 c 0,9,10
 -346 514 -346 514 -350.5 514.5 c 128,-1,11
 -355 515 -355 515 -358 513 c 0,12,13
 -362 511 -362 511 -363 509 c 0,14,15
 -365 505 -365 505 -366.5 454.5 c 128,-1,16
 -368 404 -368 404 -368 354 c 0,17,18
 -366 317 -366 317 -364 302.5 c 128,-1,19
 -362 288 -362 288 -356 288 c 0,20,0
 -353 288 -353 288 -348 291 c 128,-1,1
EndSplineSet
EndChar

